<svg width="201" height="71" viewBox="0 0 201 71" fill="none" xmlns="http://www.w3.org/2000/svg">
<path d="M2.99626 64.2676H4.27426V56.7906H6.66306V55.7396H0.607457V56.7906H2.99626V64.2676ZM9.29391 60.6844H10.8108L12.5188 64.2676H13.9282L12.0649 60.5649C13.2354 60.3022 13.749 59.5736 13.749 58.1642C13.749 57.3401 13.5579 56.7787 13.1399 56.3607C12.698 55.9187 12.1008 55.7396 11.0497 55.7396H8.01591V64.2676H9.29391V60.6844ZM9.27003 59.6691V56.7667H10.9302C12.0052 56.7667 12.483 57.2087 12.483 58.2239C12.483 59.2153 12.0291 59.6691 11.0019 59.6691H9.27003ZM20.2733 62.4879L20.8705 64.2676H22.256L19.1506 55.7396H17.9204L14.8149 64.2676H16.2004L16.7976 62.4879H20.2733ZM19.9628 61.4607H17.1082L18.5415 57.2923L19.9628 61.4607ZM23.0133 64.2676H24.2554V57.8895L28.0536 64.2676H29.2958V55.7396H28.0536V62.1177L24.2554 55.7396H23.0133V64.2676ZM34.3338 60.6844H35.9342V61.3413C35.9342 62.691 35.349 63.3479 34.1426 63.3479C32.8408 63.3479 32.351 62.6671 32.351 60.8277V59.2033C32.351 57.3759 32.8408 56.6831 34.1307 56.6831C35.0743 56.6831 35.6356 57.137 35.7551 58.0089L36.9375 57.9253C36.8539 56.4323 35.8626 55.644 34.0829 55.644C33.008 55.644 32.2794 55.9307 31.7419 56.5518C31.2522 57.1131 31.073 57.8059 31.073 59.1197V60.8994C31.073 62.1177 31.2164 62.7746 31.6225 63.324C32.148 64.0526 32.9363 64.387 34.1665 64.387C35.2654 64.387 36.0417 64.0765 36.5792 63.4315C37.0331 62.8821 37.2003 62.249 37.2003 61.0666V59.693H34.3338V60.6844ZM42.4954 64.2676H43.7734V56.7906H46.1622V55.7396H40.1066V56.7906H42.4954V64.2676ZM47.5031 64.2676H48.7811V60.4813H52.0538V64.2676H53.3318V55.7396H52.0538V59.4303H48.7811V55.7396H47.5031V64.2676ZM55.1197 61.0427C55.1197 62.1654 55.2869 62.8224 55.7049 63.3598C56.2424 64.0645 57.0188 64.387 58.2012 64.387C59.2881 64.387 60.0048 64.1243 60.5661 63.5032C61.0797 62.9537 61.2708 62.261 61.2708 61.0427V58.9644C61.2708 57.8417 61.1036 57.1848 60.6856 56.6473C60.1481 55.9426 59.3717 55.6201 58.2012 55.6201C57.1024 55.6201 56.3857 55.8829 55.8244 56.504C55.3108 57.0653 55.1197 57.7462 55.1197 58.9644V61.0427ZM59.9928 60.9233C59.9928 62.6313 59.4553 63.3479 58.2012 63.3479C56.9351 63.3479 56.3977 62.6313 56.3977 60.9233V59.0839C56.3977 57.3759 56.9351 56.6593 58.2012 56.6593C59.4553 56.6593 59.9928 57.3759 59.9928 59.0839V60.9233ZM58.1893 53.9121L58.9537 54.8677H60.172L58.6073 53.1716H57.7712L56.2185 54.8677H57.4368L58.1893 53.9121ZM63.0606 64.2676H64.3028V57.8895L68.101 64.2676H69.3432V55.7396H68.101V62.1177L64.3028 55.7396H63.0606V64.2676ZM74.3811 60.6844H75.9816V61.3413C75.9816 62.691 75.3964 63.3479 74.19 63.3479C72.8881 63.3479 72.3984 62.6671 72.3984 60.8277V59.2033C72.3984 57.3759 72.8881 56.6831 74.1781 56.6831C75.1217 56.6831 75.683 57.137 75.8025 58.0089L76.9849 57.9253C76.9013 56.4323 75.91 55.644 74.1303 55.644C73.0553 55.644 72.3268 55.9307 71.7893 56.5518C71.2996 57.1131 71.1204 57.8059 71.1204 59.1197V60.8994C71.1204 62.1177 71.2637 62.7746 71.6698 63.324C72.1954 64.0526 72.9837 64.387 74.2139 64.387C75.3128 64.387 76.0891 64.0765 76.6266 63.4315C77.0805 62.8821 77.2477 62.249 77.2477 61.0666V59.693H74.3811V60.6844ZM82.5428 64.2676H83.8208V56.7906H86.2096V55.7396H80.154V56.7906H82.5428V64.2676ZM87.5505 64.2676H88.8285V55.7396H87.5505V64.2676ZM90.8211 64.2676H92.0633V57.8895L95.8615 64.2676H97.1036V55.7396H95.8615V62.1177L92.0633 55.7396H90.8211V64.2676ZM101.188 59.4422H100.233V60.4694H101.188V64.2676H103.995C106.145 64.2915 107.208 63.1926 107.148 60.9949V59.0122C107.208 56.8145 106.145 55.7037 103.995 55.7396H101.188V59.4422ZM102.466 59.4422V56.7667H103.768C105.261 56.7309 105.858 57.3998 105.87 59.1197V60.8755C105.858 62.6074 105.261 63.2762 103.768 63.2404H102.466V60.4694H104.258V59.4422H102.466ZM108.949 64.2676H110.227V55.7396H108.949V64.2676ZM112.232 64.2676H117.38V63.2165H113.498V60.4813H116.771V59.4303H113.498V56.7906H117.344V55.7396H112.232V64.2676ZM114.812 53.9121L115.576 54.8677H116.783L115.23 53.1716H114.394L112.829 54.8677H114.047L114.812 53.9121ZM114.25 66.6564H115.433V65.2948H114.25V66.6564ZM118.85 64.2676H120.092V57.8895L123.89 64.2676H125.132V55.7396H123.89V62.1177L120.092 55.7396H118.85V64.2676ZM130.746 64.2676H132.024V56.7906H134.412V55.7396H128.357V56.7906H130.746V64.2676ZM135.508 55.7396V61.1144C135.508 62.249 135.603 62.7746 135.914 63.2523C136.427 64.0287 137.239 64.387 138.506 64.387C139.688 64.387 140.429 64.0884 140.966 63.3957C141.372 62.894 141.492 62.3446 141.492 61.1144V58.3314C142.113 58.0089 142.328 57.8895 142.566 57.7223C143.235 57.2445 143.522 56.7667 143.522 56.1337C143.522 55.9426 143.51 55.8232 143.438 55.6082H142.363C142.495 55.859 142.543 56.0262 142.543 56.277C142.543 56.8384 142.268 57.1848 141.492 57.5431V55.7396H140.214V61.1144C140.214 61.831 140.154 62.2371 140.01 62.5476C139.736 63.109 139.282 63.3479 138.506 63.3479C137.765 63.3479 137.347 63.1448 137.048 62.6551C136.857 62.3207 136.786 61.9385 136.786 61.1144V55.7396H135.508ZM139.103 55.011C139.115 54.6407 139.127 54.581 139.318 54.3421C139.652 53.936 139.7 53.8524 139.7 53.5777C139.7 53.0044 139.282 52.67 138.565 52.67C138.207 52.67 137.968 52.7177 137.55 52.8611L137.753 53.5419C138.04 53.4105 138.195 53.3747 138.362 53.3747C138.577 53.3747 138.697 53.4702 138.697 53.6255C138.697 53.721 138.661 53.8166 138.589 53.9241C138.291 54.3302 138.267 54.4018 138.255 54.8557V55.011H139.103ZM147.696 64.2676H148.974V56.7906H151.363V55.7396H145.307V56.7906H147.696V64.2676ZM152.291 61.0427C152.291 62.1654 152.458 62.8224 152.876 63.3598C153.413 64.0645 154.19 64.387 155.372 64.387C156.459 64.387 157.176 64.1243 157.737 63.5032C158.251 62.9537 158.442 62.261 158.442 61.0427V58.9644C158.442 57.8417 158.275 57.1848 157.856 56.6473C157.319 55.9426 156.543 55.6201 155.372 55.6201C154.273 55.6201 153.557 55.8829 152.995 56.504C152.482 57.0653 152.291 57.7462 152.291 58.9644V61.0427ZM157.164 60.9233C157.164 62.6313 156.626 63.3479 155.372 63.3479C154.106 63.3479 153.569 62.6313 153.569 60.9233V59.0839C153.569 57.3759 154.106 56.6593 155.372 56.6593C156.626 56.6593 157.164 57.3759 157.164 59.0839V60.9233ZM155.73 53.7091C155.742 53.4583 155.742 53.4224 155.898 53.2791C156.16 53.0044 156.208 52.9208 156.208 52.7177C156.208 52.2878 155.85 52.025 155.253 52.025C154.93 52.025 154.703 52.0728 154.393 52.1803L154.572 52.7297C154.799 52.6222 154.93 52.5864 155.074 52.5864C155.253 52.5864 155.348 52.6341 155.348 52.7297C155.348 52.7894 155.312 52.873 155.265 52.9327C155.002 53.2433 154.99 53.291 154.978 53.7091H155.73ZM155.348 54.5332L156.089 55.1782H157.247L155.742 53.9002H154.942L153.449 55.1782H154.596L155.348 54.5332ZM160.232 64.2676H161.474V57.8895L165.272 64.2676H166.514V55.7396H165.272V62.1177L161.474 55.7396H160.232V64.2676ZM171.552 60.6844H173.153V61.3413C173.153 62.691 172.567 63.3479 171.361 63.3479C170.059 63.3479 169.569 62.6671 169.569 60.8277V59.2033C169.569 57.3759 170.059 56.6831 171.349 56.6831C172.293 56.6831 172.854 57.137 172.973 58.0089L174.156 57.9253C174.072 56.4323 173.081 55.644 171.301 55.644C170.226 55.644 169.498 55.9307 168.96 56.5518C168.47 57.1131 168.291 57.8059 168.291 59.1197V60.8994C168.291 62.1177 168.435 62.7746 168.841 63.324C169.366 64.0526 170.155 64.387 171.385 64.387C172.484 64.387 173.26 64.0765 173.798 63.4315C174.251 62.8821 174.419 62.249 174.419 61.0666V59.693H171.552V60.6844ZM178.185 64.2676H179.463V60.4813H182.736V64.2676H184.014V55.7396H182.736V59.4303H179.463V55.7396H178.185V64.2676ZM192.287 55.6082C192.418 55.8471 192.466 56.0262 192.466 56.2651C192.466 56.707 192.275 56.9937 191.738 57.352C191.308 56.1815 190.376 55.6201 188.871 55.6201C187.784 55.6201 187.067 55.8948 186.506 56.504C185.993 57.0653 185.801 57.7462 185.801 58.9644V61.0427C185.801 62.1654 185.969 62.8224 186.387 63.3598C186.924 64.0645 187.701 64.387 188.883 64.387C189.97 64.387 190.687 64.1243 191.248 63.5032C191.761 62.9537 191.953 62.261 191.953 61.0427V58.9644C191.953 58.6181 191.941 58.4031 191.881 58.0686C192.347 57.7939 192.514 57.6984 192.741 57.5073C193.195 57.137 193.446 56.6354 193.446 56.1098C193.446 55.9187 193.422 55.8112 193.362 55.6082H192.287ZM190.675 60.9233C190.675 62.6313 190.137 63.3479 188.883 63.3479C187.617 63.3479 187.079 62.6313 187.079 60.9233V59.0839C187.079 57.3878 187.617 56.6712 188.883 56.6712C190.137 56.6712 190.675 57.3878 190.675 59.0839V60.9233ZM188.154 66.6564H189.337V65.2948H188.154V66.6564ZM195.405 61.0666H196.934C197.961 61.0666 198.57 60.8994 199.024 60.4933C199.538 60.0275 199.765 59.3705 199.765 58.3911C199.765 57.4834 199.574 56.8862 199.132 56.4204C198.666 55.9307 198.057 55.7396 196.934 55.7396H194.127V64.2676H195.405V61.0666ZM195.381 60.0275V56.7667H196.934C198.021 56.7667 198.499 57.2565 198.499 58.4031C198.499 59.5258 198.021 60.0275 196.934 60.0275H195.381Z" fill="#525252" fill-opacity="0.6"/>
<path d="M55.5427 16.0061C55.5427 22.9325 61.2143 25.693 66.9361 26.8976L71.0518 27.7509C74.4648 28.5038 76.4725 29.2566 76.4725 30.8126C76.4725 32.3685 74.6656 32.8704 71.7043 32.8704C67.2861 32.8704 62.7359 31.1098 59.6611 29.0312C59.3313 28.8082 58.8778 28.8967 58.6706 29.2366L54.2088 36.5575C54.0262 36.857 54.1013 37.247 54.3884 37.4486C58.4111 40.2734 63.8886 42.3064 71.353 42.3064C80.1867 42.3064 87.2637 38.1907 87.2637 29.9593C87.2637 22.7819 81.4916 20.6237 74.6656 19.1681L69.2951 18.0639C67.2875 17.6122 66.2836 16.8593 66.2836 15.8053C66.2836 14.4 67.8898 13.7475 70.7005 13.7475C74.7872 13.7475 79.2176 15.2514 81.9642 16.7484C82.3101 16.9369 82.7479 16.8114 82.9265 16.4604L86.716 9.0104C86.8816 8.68499 86.7599 8.28622 86.4376 8.11459C81.9967 5.74925 77.3544 4.41187 71.0518 4.41187C63.2722 4.41187 55.5427 8.12603 55.5427 16.0061Z" fill="#2A8B7A"/>
<path d="M126.11 23.3842C126.11 11.3885 118.18 4.41187 107.037 4.41187C95.8946 4.41187 87.9644 11.3885 87.9644 23.3842C87.9644 35.38 95.8946 42.3064 107.037 42.3064C118.18 42.3064 126.11 35.38 126.11 23.3842ZM98.8559 23.3842C98.8559 16.2069 102.821 13.1954 107.037 13.1954C111.253 13.1954 115.218 16.2069 115.218 23.3842C115.218 30.5616 111.253 33.5229 107.037 33.5229C102.821 33.5229 98.8559 30.5616 98.8559 23.3842Z" fill="#2A8B7A"/>
<path d="M161.932 5.94319C161.932 5.5687 161.628 5.26512 161.254 5.26512H152.12C151.746 5.26512 151.442 5.5687 151.442 5.94319V18.1889C151.442 18.5634 151.138 18.867 150.764 18.867H139.622C139.248 18.867 138.944 18.5634 138.944 18.1889V5.94319C138.944 5.5687 138.641 5.26512 138.266 5.26512H129.132C128.758 5.26512 128.454 5.5687 128.454 5.94319V40.9758C128.454 41.3503 128.758 41.6539 129.132 41.6539H138.266C138.641 41.6539 138.944 41.3503 138.944 40.9758V28.5795C138.944 28.205 139.248 27.9015 139.622 27.9015H150.764C151.138 27.9015 151.442 28.205 151.442 28.5795V40.9758C151.442 41.3503 151.746 41.6539 152.12 41.6539H161.254C161.628 41.6539 161.932 41.3503 161.932 40.9758V5.94319Z" fill="#2A8B7A"/>
<path d="M176.605 5.26512C176.32 5.26512 176.065 5.44374 175.968 5.71196L163.259 40.7446C163.099 41.1867 163.427 41.6539 163.897 41.6539H173.621C173.919 41.6539 174.182 41.4592 174.269 41.1741L175.833 36.0605C175.92 35.7754 176.183 35.5807 176.481 35.5807H187.072C187.37 35.5807 187.633 35.7754 187.72 36.0605L189.284 41.1741C189.371 41.4592 189.634 41.6539 189.932 41.6539H199.857C200.327 41.6539 200.655 41.1867 200.494 40.7446L187.786 5.71196C187.689 5.44374 187.434 5.26512 187.148 5.26512H176.605ZM179.361 27.7509C178.903 27.7509 178.577 27.3074 178.713 26.8709L181.195 18.9154C181.394 18.2777 182.298 18.2815 182.491 18.9208L184.9 26.8763C185.031 27.3117 184.706 27.7509 184.251 27.7509H179.361Z" fill="#2A8B7A"/>
<path fill-rule="evenodd" clip-rule="evenodd" d="M2.19372 2.05432C0.320801 3.92724 0.320801 6.94166 0.320801 12.9705V33.7485C0.320801 39.7773 0.320801 42.7918 2.19372 44.6647C4.06664 46.5376 7.08106 46.5376 13.1099 46.5376H33.8879C39.9167 46.5376 42.9312 46.5376 44.8041 44.6647C46.677 42.7918 46.677 39.7773 46.677 33.7485V12.9705C46.677 6.94166 46.677 3.92724 44.8041 2.05432C42.9312 0.181396 39.9167 0.181396 33.8879 0.181396H13.1099C7.08106 0.181396 4.06664 0.181396 2.19372 2.05432ZM20.4476 26.1156C15.6407 25.1036 10.876 22.7845 10.876 16.9656C10.876 10.3456 17.3695 7.22539 23.9052 7.22539C29.4289 7.22539 33.4346 8.4482 37.3138 10.5986L33.6032 17.8933C31.3685 16.544 27.3206 15.0682 23.61 15.0682C21.2487 15.0682 19.8994 15.6163 19.8994 16.797C19.8994 17.6825 20.7427 18.3149 22.4294 18.6944L26.9411 19.6221C32.6756 20.8449 37.5246 22.658 37.5246 28.6877C37.5246 35.6028 31.5793 39.0604 24.1581 39.0604C17.6225 39.0604 12.8999 37.2051 9.48452 34.6752L13.8276 27.5492C16.3997 29.4467 20.4897 31.1333 24.4533 31.1333C26.9411 31.1333 28.459 30.7116 28.459 29.4045C28.459 28.0974 26.7724 27.4649 23.9052 26.8324L20.4476 26.1156Z" fill="#2A8B7A"/>
</svg>
