<?xml version="1.0" encoding="UTF-8"?>
<svg id="Layer_2" data-name="Layer 2" xmlns="http://www.w3.org/2000/svg" viewBox="0 0 287.05 198.45">
  <defs>
    <style>
      .cls-1 {
        fill: #575756;
        fill-rule: evenodd;
      }

      .cls-2 {
        fill: #009de1;
      }

      .cls-3 {
        fill: #7c7c7c;
      }

      .cls-4 {
        fill: #e4007e;
      }

      .cls-5 {
        fill: #792180;
      }
    </style>
  </defs>
  <g id="Layer_1-2" data-name="Layer 1">
    <g>
      <g>
        <path class="cls-1" d="M159.26,117.43c-4.7-3-10-4.52-15.76-4.52-8.23,0-15.31,2.9-21.05,8.64-5.75,5.73-8.66,12.77-8.66,20.94s2.8,15.06,8.33,20.73c5.52,5.66,12.31,8.54,20.38,8.54s15.24-4.67,20.45-8.68v7.8h9.11v-27.07c0-5.21-.55-9.92-2.45-14.02-2.43-5.23-5.63-9.39-10.34-12.37Zm3.87,34.38c-5.46,4.87-12.18,9.87-19.7,9.87-5.31,0-9.86-1.89-13.52-5.63-3.65-3.72-5.51-8.3-5.51-13.63s1.85-9.89,5.51-13.68c3.65-3.82,8.18-5.75,13.45-5.75s9.76,1.89,13.28,5.47c4.2,4.28,6.55,10.6,6.44,17.36l.04,5.98Z"/>
        <path class="cls-1" d="M185.87,156.29c-2.02,0-3.78,.71-5.22,2.11-1.44,1.42-2.17,3.16-2.17,5.18s.72,3.74,2.15,5.14c1.4,1.43,3.14,2.15,5.15,2.15s3.71-.72,5.14-2.15c1.41-1.41,2.13-3.14,2.13-5.14s-.69-3.64-2.11-5.12c-1.4-1.45-3.1-2.18-5.06-2.18Z"/>
        <path class="cls-1" d="M211.59,157.54c-.28,.87-.78,1.99-1.56,1.99-.53,0-1.04-.58-1.46-1.75l-15.1-43.94-.03-.23h-10.74l17.62,49.59c.98,2.76,1.92,4.73,2.77,5.71,1.61,1.86,4,2.83,7.13,2.83,2.95,0,5.25-.81,6.8-2.46,.99-1.03,1.96-3.06,2.9-5.74l17.73-49.93h-10.84l-15.22,43.93Z"/>
        <path class="cls-1" d="M283.99,126.89c-3.92-9.29-11.67-14-22.62-14-7.65,0-13.59,2.48-18.03,7.36-4.24,4.7-6.2,10.97-6.2,18.65v31.99h10.41v-29.24c0-5.57,.5-9.72,2.22-12.34,2.73-4.17,6.5-6.28,11.57-6.28,4.64,0,8.64,1.81,11.41,5.37,2.12,2.76,3.44,7.01,3.44,12.65v29.84h10.41v-32.24c0-4.31-1.16-8.26-2.62-11.76Z"/>
        <path class="cls-1" d="M50,144.19c-1.9,7.18-5.28,12.26-10.05,15.11-3.5,2.09-7.2,3.14-11.02,3.14-5.83,0-8.79-2.06-12.52-6.11-.18-.2-.36-.4-.53-.6l40.09-25.83-.07-.12c-1.83-3.3-3.64-5.92-5.39-7.77-5.57-6.07-12.67-9.15-21.09-9.15-7.85,0-14.65,2.66-20.21,7.91-6.11,5.78-9.21,13.08-9.21,21.7,0,7.72,2.7,14.5,8.04,20.17,5.84,6.22,13.21,9.37,21.88,9.37,8.21,0,15.17-2.75,20.71-8.16,3.69-3.6,6.53-8.77,8.45-15.36l.04-.12-9.07-4.34-.05,.17Zm-21.43-22.11c.66-.08,1.32-.12,1.97-.12,4.4,0,8.33,1.84,11.09,5.19l-30.4,19.56c-.38-1.62-.57-3.34-.57-5.11,0-10.38,7.2-18.23,17.9-19.53Z"/>
        <path class="cls-1" d="M115.93,95.54c-7.62-17.85-26.1-28.68-32.28-47.68-4.97-15.27-2.32-30.7,6.62-41.87,0,0-11.12,4.39-16.95,13.6-4.46,7.05-5.68,13.55-6.17,23.9-.55,4.73-3.64,10.37-10.35,17.64-2.9,2.57-4.24,3.31-1.05,7.19,.53,.59,2.13,1.27,2.99,2.23,.86,.96,1.07,3.74-.28,4.7-2.68,1.93-2.71,3.09,.28,5.71,.5,.82-2.7,2.68,.78,4.85,1.13,.7,2.34,.74,2.42,1.91,.08,1.12,.45,5.14,.81,7.68,.59,4.11,9.55,4.33,12.74,4.51,4.33,.24,7.74-.66,11.35-.29,8.09,.83,12.49,4.51,14.39,7.13,5.33,7.14,3.26,14.18,.17,22.22-4.12,9.52-7.43,16.03-15.12,29.43-.81,1.34-1.72,1.85-2.49,1.81-.96-.05-1.84-1.25-2.31-2.54l-15.27-44.07h-10.58l17.76,49.59c.99,2.78,1.92,4.84,2.79,5.83,1.61,1.86,3.97,2.86,7.12,2.86,2.96,0,5.24-.79,6.8-2.43,.21-.22,.42-.46,.62-.75h0c8.24-10.64,17.27-29.01,22.52-41.55,3.9-9.32,7.21-20.99,2.67-31.62Z"/>
        <path class="cls-4" d="M167.21,35.75c-1.06-3.76-2.99-7.16-5.58-9.95-4.45-4.8-10.8-7.81-17.86-7.81-6.03,0-11.54,2.2-15.8,5.83-1,.85-1.93,1.79-2.78,2.79-8.74,9.44-14.09,22.07-14.09,35.95,0,3.54,.35,7,1.01,10.35,.06,.24,.17,.9,.35,1.47,3.13,1.97,6.49,3.61,10.03,4.89,3.85,1.49,8.03,2.31,12.41,2.31,18.94,0,34.3-15.36,34.3-34.3,0-4.05-.7-7.94-1.99-11.54Z"/>
        <path class="cls-5" d="M147.28,65.63c-2.63-1.51-6.48-1.97-10.23-2.21-5.16-.33-12.25,.48-14.37,.75,11.99-5.35,20.34-17.37,20.34-31.35,0-5.18-1.15-10.09-3.2-14.49-4.48,.73-8.54,2.68-11.85,5.5-1,.85-1.93,1.79-2.78,2.79-8.74,9.44-14.09,22.07-14.09,35.95,0,1.25,.05,2.49,.14,3.71,.04,.56,.08,1.09,.2,2.23,0,0,0,0,0,0,.17,1.49,.39,2.95,.68,4.4,.06,.24,.17,.9,.35,1.47,3.13,1.97,6.49,3.61,10.03,4.89,1.05,.41,2.13,.76,3.23,1.07,2.28,.72,4.69,1.11,7.19,1.11,6.06,0,12.07-2.39,15.95-6,1.11-1.04,1.82-2.64,1.82-4.34,0-2.4-1.39-4.48-3.41-5.47Zm-23.81,13.87s0,0,.01,0c0,0,0,0-.01,0Z"/>
        <path class="cls-2" d="M111.5,69.04s-.2-1.39-.27-2.28c-.09-1.23-.14-2.71-.14-3.96,0-13.88,4.36-25.38,14.09-36.07,3.9-4.29,8.48-7.3,14.63-8.38-2.44-5.24-6.17-9.77-10.78-13.17-.75-.58-1.54-1.11-2.36-1.6-3.81-2.27-8.26-3.59-13.01-3.59-11.69,0-21.85,7.67-24.51,18.63-1.08,4.45-1.3,8.3-1.25,11.39,.23,14.26,5.7,27.18,14.95,36.62,2.88,2.94,6.1,5.54,9.6,7.74-.11-.47-.71-3.36-.96-5.35Z"/>
      </g>
      <path class="cls-4" d="M143.72,89.44c-2.31-1.9-9.41-6.02-13.9-8.23-2.54-.38-5-1.03-7.32-1.94-3.53-1.28-6.89-2.91-10.02-4.88,2.08,9.06,6.47,17.23,12.54,23.85,3.1,3.13,7.05,5.42,11.47,6.49h0c1.83,.45,3.75,.68,5.72,.69,1.31,0,2.97-.06,4.13-.35,2.57-.7,4.46-3.05,4.46-5.84,0-.71-.15-1.34-.15-1.34-.89-4.1-4.19-6.2-6.93-8.46Z"/>
    </g>
    <g>
      <path class="cls-3" d="M4.05,194.98v-9.47H.64v-1.51H9.19v1.51h-3.41v9.47h-1.72Z"/>
      <path class="cls-3" d="M10.96,194.98v-10.98h4.08c.78,0,1.44,.15,1.98,.45,.54,.3,.95,.7,1.22,1.19,.28,.49,.42,1.02,.42,1.6,0,.69-.2,1.32-.59,1.89-.39,.56-.96,.96-1.71,1.19l2.64,4.68h-1.94l-2.49-4.48h-1.87v4.48h-1.74Zm4.05-9.47h-2.32v3.53h2.32c.62,0,1.09-.18,1.41-.54,.32-.36,.48-.77,.48-1.22s-.16-.86-.48-1.22c-.32-.36-.79-.54-1.41-.54Z"/>
      <path class="cls-3" d="M20.56,194.98l3.83-10.98h2.23l3.84,10.98h-1.83l-.85-2.46h-4.56l-.85,2.46h-1.83Zm3.19-4.01h3.52l-1.75-5.12-1.77,5.12Z"/>
      <path class="cls-3" d="M32.18,194.98v-10.98h1.57l5.39,7.9v-7.9h1.74v10.98h-1.59l-5.39-7.82v7.82h-1.72Z"/>
      <path class="cls-3" d="M48.11,195.13c-.91,0-1.7-.16-2.37-.47-.67-.32-1.22-.74-1.67-1.28-.45-.54-.78-1.14-.99-1.81-.22-.67-.33-1.35-.33-2.06s.11-1.39,.33-2.06c.22-.67,.55-1.28,1-1.82,.45-.54,1.01-.97,1.69-1.29,.68-.32,1.47-.48,2.38-.48,.71,0,1.32,.09,1.83,.27,.5,.18,.93,.41,1.28,.69,.35,.28,.62,.58,.83,.9,.21,.32,.37,.62,.47,.91,.11,.29,.2,.61,.28,.96h-1.74c-.08-.3-.18-.55-.29-.76-.11-.21-.28-.43-.5-.65-.22-.22-.5-.4-.85-.54-.35-.14-.78-.22-1.3-.22-.61,0-1.15,.12-1.61,.35-.46,.23-.84,.54-1.14,.93-.3,.39-.53,.82-.68,1.31s-.22,.98-.22,1.48,.08,1.02,.23,1.51c.15,.49,.38,.93,.68,1.32,.3,.39,.68,.7,1.13,.93s.98,.34,1.58,.34c.94,0,1.69-.27,2.24-.8,.55-.53,.86-1.26,.92-2.17h-3.13v-1.4h4.81v.79c0,1.13-.21,2.07-.65,2.84-.43,.76-1.01,1.34-1.75,1.72-.74,.39-1.56,.58-2.47,.58Z"/>
      <path class="cls-3" d="M61.13,194.98v-9.47h-3.41v-1.51h8.55v1.51h-3.41v9.47h-1.72Z"/>
      <path class="cls-3" d="M68.03,194.98v-10.98h1.74v4.63h4.91v-4.63h1.74v10.98h-1.74v-4.81h-4.91v4.81h-1.74Z"/>
      <path class="cls-3" d="M83.68,195.13c-.88,0-1.66-.16-2.33-.48-.67-.32-1.24-.75-1.69-1.29-.46-.54-.8-1.15-1.02-1.82-.23-.67-.34-1.36-.34-2.06s.11-1.39,.34-2.06,.57-1.27,1.02-1.8c.45-.53,1.02-.96,1.69-1.28,.67-.32,1.45-.48,2.33-.48s1.67,.16,2.34,.48,1.24,.75,1.69,1.28c.46,.53,.8,1.14,1.02,1.8s.34,1.35,.34,2.06-.11,1.39-.34,2.06c-.23,.67-.57,1.28-1.02,1.82-.46,.54-1.02,.97-1.69,1.29s-1.45,.48-2.34,.48Zm0-1.59c.79,0,1.45-.2,1.99-.59,.53-.39,.94-.9,1.22-1.51,.28-.62,.42-1.27,.42-1.97,0-.51-.08-1.01-.24-1.49s-.39-.91-.69-1.3c-.3-.39-.68-.69-1.13-.91-.45-.22-.97-.33-1.57-.33s-1.1,.11-1.55,.33c-.45,.22-.83,.53-1.13,.91-.3,.39-.53,.82-.69,1.3-.16,.48-.24,.98-.24,1.49,0,.69,.14,1.35,.42,1.97s.68,1.12,1.22,1.51c.53,.39,1.19,.59,1.97,.59Zm-2.52-10.78l1.84-2.21h1.4l1.84,2.21h-1.44l-1.1-1.32-1.1,1.32h-1.44Z"/>
      <path class="cls-3" d="M90.95,194.98v-10.98h1.57l5.39,7.9v-7.9h1.74v10.98h-1.59l-5.39-7.82v7.82h-1.72Z"/>
      <path class="cls-3" d="M106.88,195.13c-.91,0-1.7-.16-2.37-.47-.67-.32-1.22-.74-1.67-1.28-.45-.54-.78-1.14-.99-1.81-.22-.67-.33-1.35-.33-2.06s.11-1.39,.33-2.06c.22-.67,.55-1.28,1-1.82,.45-.54,1.01-.97,1.69-1.29,.68-.32,1.47-.48,2.38-.48,.71,0,1.32,.09,1.83,.27,.5,.18,.93,.41,1.28,.69,.35,.28,.62,.58,.83,.9,.21,.32,.37,.62,.47,.91,.11,.29,.2,.61,.28,.96h-1.74c-.08-.3-.18-.55-.29-.76-.11-.21-.28-.43-.5-.65-.22-.22-.5-.4-.85-.54-.35-.14-.78-.22-1.3-.22-.61,0-1.15,.12-1.61,.35-.46,.23-.84,.54-1.14,.93-.3,.39-.53,.82-.68,1.31s-.22,.98-.22,1.48,.08,1.02,.23,1.51c.15,.49,.38,.93,.68,1.32,.3,.39,.68,.7,1.13,.93s.98,.34,1.58,.34c.94,0,1.69-.27,2.24-.8,.55-.53,.86-1.26,.92-2.17h-3.13v-1.4h4.81v.79c0,1.13-.21,2.07-.65,2.84-.43,.76-1.01,1.34-1.75,1.72-.74,.39-1.56,.58-2.47,.58Z"/>
      <path class="cls-3" d="M119.9,194.98v-9.47h-3.41v-1.51h8.55v1.51h-3.41v9.47h-1.72Z"/>
      <path class="cls-3" d="M126.8,194.98v-10.98h1.74v10.98h-1.74Z"/>
      <path class="cls-3" d="M130.79,194.98v-10.98h1.57l5.39,7.9v-7.9h1.74v10.98h-1.59l-5.39-7.82v7.82h-1.72Z"/>
      <path class="cls-3" d="M145.92,194.98v-4.75h-1.4v-1.48h1.4v-4.75h3.76c.89,0,1.66,.16,2.32,.47,.66,.31,1.21,.73,1.65,1.25s.77,1.11,.99,1.77c.22,.65,.33,1.32,.33,2s-.11,1.35-.33,2c-.22,.65-.55,1.24-.99,1.77s-.99,.94-1.65,1.25c-.66,.31-1.43,.47-2.32,.47h-3.76Zm3.96-4.75h-2.23v3.22h1.94c.61,0,1.15-.11,1.6-.33,.45-.22,.83-.52,1.14-.91,.3-.38,.53-.81,.68-1.28,.15-.47,.22-.95,.22-1.45s-.07-.98-.22-1.45-.37-.9-.68-1.28c-.3-.38-.68-.68-1.14-.91-.46-.23-.99-.34-1.6-.34h-1.94v3.24h2.23v1.48Z"/>
      <path class="cls-3" d="M156.84,194.98v-10.98h1.74v10.98h-1.74Z"/>
      <path class="cls-3" d="M160.95,194.98v-10.98h7.17v1.51h-5.43v3.13h4.75v1.5h-4.75v3.32h5.51v1.51h-7.24Zm1.17-12.07l1.84-2.21h1.4l1.84,2.21h-1.44l-1.1-1.32-1.1,1.32h-1.44Zm2.4,15.54c-.31,0-.56-.1-.75-.31s-.29-.45-.29-.73,.1-.53,.29-.74,.44-.3,.75-.3,.54,.1,.74,.3c.2,.2,.3,.45,.3,.74s-.1,.53-.3,.73c-.2,.2-.45,.3-.74,.3Z"/>
      <path class="cls-3" d="M170.26,194.98v-10.98h1.57l5.39,7.9v-7.9h1.74v10.98h-1.59l-5.39-7.82v7.82h-1.72Z"/>
      <path class="cls-3" d="M187.55,194.98v-9.47h-3.41v-1.51h8.55v1.51h-3.41v9.47h-1.72Z"/>
      <path class="cls-3" d="M198.85,195.13c-.84,0-1.58-.16-2.23-.48-.64-.32-1.15-.79-1.51-1.41-.36-.62-.54-1.38-.54-2.28v-6.96h1.74v6.96c0,.71,.21,1.31,.62,1.8,.42,.49,1.05,.74,1.92,.74s1.51-.25,1.93-.74c.42-.49,.62-1.09,.62-1.8v-6.96h1.38c.4,0,.59-.2,.59-.61v-.94h1.51v.95c0,.47-.13,.85-.39,1.16-.26,.31-.65,.46-1.17,.46h-.19v5.94c0,.9-.18,1.66-.54,2.28s-.87,1.09-1.51,1.41-1.39,.48-2.23,.48Zm-.4-12.16v-.49c0-.1,.02-.2,.07-.31s.13-.19,.26-.25l.21-.1c.45-.23,.67-.47,.67-.74,0-.13-.05-.25-.15-.36-.1-.11-.25-.16-.46-.16s-.34,.04-.43,.13c-.09,.08-.15,.18-.17,.27s-.04,.17-.04,.22h-1.08c0-.26,.04-.5,.16-.74,.12-.24,.3-.44,.56-.59,.25-.16,.58-.24,.99-.24,.54,0,.97,.14,1.29,.42s.47,.62,.47,1.02c0,.58-.4,1.07-1.2,1.47l-.06,.03v.43h-1.08Z"/>
      <path class="cls-3" d="M211.85,194.98v-9.47h-3.41v-1.51h8.55v1.51h-3.41v9.47h-1.72Z"/>
      <path class="cls-3" d="M222.84,195.13c-.88,0-1.66-.16-2.33-.48-.67-.32-1.24-.75-1.69-1.29-.46-.54-.8-1.15-1.02-1.82-.23-.67-.34-1.36-.34-2.06s.11-1.39,.34-2.06,.57-1.27,1.02-1.8c.45-.53,1.02-.96,1.69-1.28,.67-.32,1.45-.48,2.33-.48s1.67,.16,2.34,.48,1.24,.75,1.69,1.28c.46,.53,.8,1.14,1.02,1.8s.34,1.35,.34,2.06-.11,1.39-.34,2.06c-.23,.67-.57,1.28-1.02,1.82-.46,.54-1.02,.97-1.69,1.29s-1.45,.48-2.34,.48Zm0-1.59c.79,0,1.45-.2,1.99-.59,.53-.39,.94-.9,1.22-1.51,.28-.62,.42-1.27,.42-1.97,0-.51-.08-1.01-.24-1.49s-.39-.91-.69-1.3c-.3-.39-.68-.69-1.13-.91-.45-.22-.97-.33-1.57-.33s-1.1,.11-1.55,.33c-.45,.22-.83,.53-1.13,.91-.3,.39-.53,.82-.69,1.3-.16,.48-.24,.98-.24,1.49,0,.69,.14,1.35,.42,1.97s.68,1.12,1.22,1.51c.53,.39,1.19,.59,1.97,.59Zm-2.54-10.78l1.84-2.21h1.4l1.84,2.21h-1.44l-1.11-1.32-1.08,1.32h-1.44Zm4.48-1.75v-.47c0-.11,.02-.21,.07-.32,.04-.1,.13-.19,.24-.25l.22-.12c.45-.22,.67-.46,.67-.73,0-.14-.05-.26-.16-.37-.1-.11-.26-.16-.47-.16-.19,0-.33,.04-.42,.13s-.15,.18-.18,.28c-.02,.1-.04,.18-.04,.21h-1.08c0-.25,.06-.49,.17-.73s.3-.44,.55-.6c.25-.16,.58-.24,.99-.24,.54,0,.98,.14,1.3,.42s.48,.62,.48,1.02c0,.58-.41,1.07-1.22,1.47l-.06,.03v.43h-1.07Z"/>
      <path class="cls-3" d="M230.11,194.98v-10.98h1.57l5.39,7.9v-7.9h1.74v10.98h-1.59l-5.39-7.82v7.82h-1.72Z"/>
      <path class="cls-3" d="M246.04,195.13c-.91,0-1.7-.16-2.37-.47-.67-.32-1.22-.74-1.67-1.28-.45-.54-.78-1.14-.99-1.81-.22-.67-.33-1.35-.33-2.06s.11-1.39,.33-2.06c.22-.67,.55-1.28,1-1.82,.45-.54,1.01-.97,1.69-1.29,.68-.32,1.47-.48,2.38-.48,.71,0,1.32,.09,1.83,.27,.5,.18,.93,.41,1.28,.69,.35,.28,.62,.58,.83,.9,.21,.32,.37,.62,.47,.91,.11,.29,.2,.61,.28,.96h-1.74c-.08-.3-.18-.55-.29-.76-.11-.21-.28-.43-.5-.65-.22-.22-.5-.4-.85-.54-.35-.14-.78-.22-1.3-.22-.61,0-1.15,.12-1.61,.35-.46,.23-.84,.54-1.14,.93-.3,.39-.53,.82-.68,1.31s-.22,.98-.22,1.48,.08,1.02,.23,1.51c.15,.49,.38,.93,.68,1.32,.3,.39,.68,.7,1.13,.93s.98,.34,1.58,.34c.94,0,1.69-.27,2.24-.8,.55-.53,.86-1.26,.92-2.17h-3.13v-1.4h4.81v.79c0,1.13-.21,2.07-.65,2.84-.43,.76-1.01,1.34-1.75,1.72-.74,.39-1.56,.58-2.47,.58Z"/>
      <path class="cls-3" d="M256.13,194.98v-10.98h1.74v4.63h4.91v-4.63h1.74v10.98h-1.74v-4.81h-4.91v4.81h-1.74Z"/>
      <path class="cls-3" d="M271.78,195.13c-.88,0-1.66-.16-2.33-.48-.67-.32-1.24-.75-1.69-1.29-.46-.54-.8-1.15-1.02-1.82-.23-.67-.34-1.36-.34-2.06s.11-1.39,.34-2.06,.57-1.27,1.02-1.8c.45-.53,1.02-.96,1.69-1.28,.67-.32,1.45-.48,2.33-.48h2.55c.44,0,.65-.22,.65-.67v-.88h1.54v.95c0,.5-.11,.9-.34,1.19s-.59,.45-1.1,.49c.69,.53,1.21,1.21,1.57,2.03,.35,.82,.53,1.66,.53,2.52,0,.7-.11,1.39-.34,2.06-.23,.67-.57,1.28-1.02,1.82-.46,.54-1.02,.97-1.69,1.29s-1.45,.48-2.34,.48Zm0-1.59c.79,0,1.45-.2,1.99-.59,.53-.39,.94-.9,1.22-1.51,.28-.62,.42-1.27,.42-1.97,0-.51-.08-1.01-.24-1.49s-.39-.91-.69-1.3c-.3-.39-.68-.69-1.13-.91-.45-.22-.97-.33-1.57-.33s-1.1,.11-1.55,.33c-.45,.22-.83,.53-1.13,.91-.3,.39-.53,.82-.69,1.3-.16,.48-.24,.98-.24,1.49,0,.69,.14,1.35,.42,1.97s.68,1.12,1.22,1.51c.53,.39,1.19,.59,1.97,.59Zm-.03,4.91c-.3,0-.54-.1-.73-.31-.19-.21-.29-.45-.29-.73s.1-.53,.29-.74c.19-.2,.44-.3,.73-.3s.54,.1,.74,.3c.2,.2,.3,.45,.3,.74s-.1,.53-.3,.73c-.2,.2-.45,.3-.74,.3Z"/>
      <path class="cls-3" d="M279.05,194.98v-10.98h4.13c.86,0,1.58,.18,2.15,.53,.57,.35,1,.8,1.29,1.35,.29,.55,.43,1.13,.43,1.73s-.14,1.18-.43,1.74-.72,1.01-1.29,1.36c-.57,.35-1.29,.53-2.15,.53h-2.39v3.76h-1.74Zm4.13-9.47h-2.39v4.2h2.39c.47,0,.87-.1,1.19-.3s.55-.47,.71-.79c.16-.32,.24-.66,.24-1s-.08-.69-.24-1.02-.4-.58-.71-.79-.71-.3-1.19-.3Z"/>
    </g>
  </g>
</svg>