<?xml version="1.0" encoding="utf-8"?>
<!-- Generator: Adobe Illustrator 25.3.1, SVG Export Plug-In . SVG Version: 6.00 Build 0)  -->
<svg version="1.1" id="Layer_1" xmlns="http://www.w3.org/2000/svg" xmlns:xlink="http://www.w3.org/1999/xlink" x="0px" y="0px"
	 viewBox="0 0 978.49 294.88" style="enable-background:new 0 0 978.49 294.88;" xml:space="preserve">
<style type="text/css">
	.st0{fill:#282828;}
	.st1{fill:#003C77;}
	.st2{fill:#FEC465;}
	.st3{fill:#9C7235;}
	.st4{fill:none;stroke:#FFFFFF;stroke-miterlimit:10;}
	.st5{fill:#F79151;}
	.st6{fill:#F6871F;}
	.st7{fill:#D0A868;}
	.st8{fill:#FFFFFF;}
	.st9{fill:#E68A4D;}
	.st10{fill:#DB7F27;}
</style>
<g>
	<path class="st3" d="M165.86,154.39c1.32,4.49,0.54,7.17-2.33,8.05c-2.87,0.88-5.44,1.25-7.47,0.44c-2.47-0.98-4.63-2.99-6.86-5.28
		h-0.44c-5.05,2.7-11.56,4.35-19.53,4.93c-14.25,0-23.9-4.28-28.95-12.85c-2.81-5.33-4.22-9.64-4.22-12.93
		c0-12.55,5.4-20.59,16.19-24.1c4.28-1.64,7.98-2.47,11.09-2.47h2.11c9.03,0,16.04,1.32,21.03,3.96h0.35
		c0.53-4.28,0.8-8.65,0.8-13.11c0-4.93-0.44-7.4-1.32-7.4c-1.35-0.58-2.88-0.24-4.84,0.09c-0.22,0.04-0.66,0-0.89,0
		c-2.11,0-8.53,1.67-19.27,5.01l-1.58,0.18c-5.81,0-10.44-1.99-13.9-5.98c-2.64-3.87-4.17-7.95-4.58-12.23
		c0-2.41,1.03-3.61,3.08-3.61c3.52,0.59,9.41,1.79,17.68,3.61c9.03,1.64,14.99,2.76,17.86,3.34c6.75,0.41,11.82,1.94,15.22,4.58
		c6.92,5.04,10.39,12.9,10.39,23.58v8.27C164.42,138.6,164.55,149.91,165.86,154.39 M111.45,139.04c0.65,5.1,4.08,7.95,10.3,8.54
		c1.47,0.41,3.22,0.61,5.28,0.61h1.41c7.69,0,12.87-2.58,15.58-7.74c0.53-1.12,0.79-2.55,0.79-4.32c0-6.33-3.82-10.47-11.44-12.41
		c-1.58-0.41-3.73-0.61-6.42-0.61c-9.04,1-13.3,4.83-15.49,10.73C111.03,134.98,110.86,136.64,111.45,139.04 M186.8,74.54
		c-2.52,0-3.96,1.96-4.31,5.89l0.44,4.14c2.35,6.69,3.52,16.46,3.52,29.29v1.06c0,10.44-0.53,19.15-1.59,26.13v0.17l0.18,0.27
		l-0.79,8.27c0,1.88,0.26,3.78,0.79,5.72c1.76,4.98,5.16,7.48,10.21,7.48h1.58c0.88,0,1.88-0.21,2.99-0.62
		c3.7-1.29,5.55-4.63,5.55-10.03c-1.35-11.97-2.02-21.59-2.02-28.86l-0.18-2.37l0.18-0.27l-0.18-2.2v-1.93
		c0-7.04,0.38-13.49,1.14-19.35l3.87,0.26c1.88,0,6.6-0.44,14.16-1.32h1.85c1.99,0,5.14,1.04,6.69,4.75
		c1.21,2.89,1.2,13.93,2.37,32.46l-0.17,8.62v1.93l-0.18,2.37l0.18,0.09l-0.18,2.29v3.34c1.11,7.39,4.02,11.09,8.71,11.09h0.53
		c1.17,0,2.31-0.3,3.43-0.88c5.63-3.4,8.44-11.09,8.44-23.05c0-16.77-0.85-27.63-2.55-32.55c-5.87-13.55-16.75-20.32-32.64-20.32
		h-7.56c-2.06,0-4.17-0.47-6.34-1.41c-7.75-7.16-13.69-10.74-17.86-10.74L186.8,74.54z M298,55.06c3.93,0,11.41,0.3,18.74,6.36
		c1.29,1.06,1.49,2.3,1.49,2.92v0.17l-1.49,6.45c4.04,1.09,8.15,3.1,12.32,6.01c10.09,7.16,15.13,16.5,15.13,28.02v1.37
		c0,12.95-5.33,21.48-16.01,25.61c-4.81,1.83-9.38,2.75-13.72,2.75l-1.68,4.04c0,0.29,1.08,0.66,3.26,1.12
		c4.52,1.03,8.68,2.49,12.49,4.38c12.61,7.56,18.91,16.67,18.91,27.33c-0.58,17.12-7.68,26.98-21.29,29.55
		c-5.22,1.32-10.12,1.98-14.69,1.98v0.25l-0.17-0.25h-0.18l-1.05,0.25c-17.89,0-30.94-5.9-39.15-17.7
		c-2.64-5.39-3.96-11.63-3.96-18.73c0-6.99,4.55-13.92,13.64-20.79c5.1-3.44,10.91-5.61,17.42-6.53c1.64-4.46,1.88-6.7,0.7-6.7
		c-9.21-2.29-16.27-6.3-21.21-12.03c-4.63-6.02-6.95-12.46-6.95-19.33c0-10.14,4.34-18.47,13.02-25c6.16-3.73,12.03-5.59,17.6-5.59
		c0.12-3.21-1.47-6.16-4.75-8.85c-1.52-1.26-2.29-2.72-2.29-4.38C294.13,55.95,295.42,55.06,298,55.06 M283.66,166.68v1.29
		c0,10.08,4.61,16.56,13.82,19.42c2.41,0.52,4.96,0.78,7.65,0.78c12.09,0,19.95-3.67,23.58-11c1.29-4.01,1.61-6.85,0.97-8.51v-1.72
		c0-5.27-4.61-9.86-13.81-13.75c-2.52-0.86-5.45-1.28-8.8-1.28c-11.14,0-18.71,3.37-22.7,10.14
		C283.9,163.77,283.66,165.31,283.66,166.68 M285.51,101.21c0,7.33,4.28,12.26,12.85,14.78c2.46,0.57,5.4,0.86,8.8,0.86h1.06
		c10.03,0,16.66-2.95,19.88-8.85c0.7-2,1.06-3.72,1.06-5.15c0-7.04-4.52-12.18-13.55-15.38c-1.93-0.69-4.4-1.03-7.39-1.03h-2.81
		c-9.04,0-15.43,3.58-19.19,10.74C285.74,99.01,285.51,100.35,285.51,101.21 M363.87,74.54c-2.53,0-3.96,1.96-4.32,5.89l0.44,4.14
		c2.35,6.69,3.52,16.46,3.52,29.29v1.06c0,10.44-0.52,19.15-1.58,26.13v0.17l0.17,0.27l-0.79,8.27c0,1.88,0.27,3.78,0.79,5.72
		c1.76,4.98,5.16,7.48,10.21,7.48h1.59c0.88,0,1.87-0.21,2.99-0.62c3.7-1.29,5.55-4.63,5.55-10.03
		c-1.35-11.97-2.03-21.59-2.03-28.86l-0.18-2.37l0.18-0.27l-0.18-2.2v-1.93c0-7.04,0.38-13.49,1.14-19.35l3.87,0.26
		c1.88,0,6.6-0.44,14.16-1.32h1.85c1.99,0,5.14,1.04,6.69,4.75c1.2,2.89,1.2,13.93,2.37,32.46l-0.17,8.62v1.93l-0.18,2.37l0.18,0.09
		l-0.18,2.29v3.34c1.11,7.39,4.02,11.09,8.71,11.09h0.53c1.17,0,2.31-0.3,3.43-0.88c5.63-3.4,8.44-11.09,8.44-23.05
		c0-16.77-0.85-27.63-2.55-32.55c-5.87-13.55-16.75-20.32-32.64-20.32h-7.56c-2.06,0-4.17-0.47-6.34-1.41
		c-7.74-7.16-13.7-10.74-17.86-10.74L363.87,74.54z M514.19,155.09c1.32,4.49,0.54,7.17-2.33,8.05c-2.88,0.88-5.44,1.25-7.48,0.44
		c-2.46-0.98-4.63-2.99-6.86-5.28h-0.44c-5.04,2.7-11.55,4.35-19.53,4.93c-14.26,0-23.9-4.28-28.95-12.85
		c-2.82-5.33-4.22-9.65-4.22-12.94c0-12.55,5.4-20.59,16.19-24.1c4.29-1.64,7.98-2.47,11.09-2.47h2.11c9.04,0,16.04,1.32,21.03,3.96
		h0.35c0.53-4.28,0.79-8.65,0.79-13.11c0-4.93-0.44-7.4-1.32-7.4c-1.35-0.58-2.88-0.24-4.84,0.09c-0.21,0.03-0.65,0-0.87,0
		c-2.12,0-8.54,1.67-19.27,5.01l-1.59,0.18c-5.81,0-10.44-1.99-13.9-5.98c-2.64-3.87-4.16-7.95-4.57-12.23
		c0-2.41,1.02-3.61,3.07-3.61c3.53,0.59,9.42,1.79,17.69,3.61c9.03,1.64,14.95,2.96,17.86,3.34c6.7,0.88,11.81,1.94,15.22,4.58
		c6.92,5.04,10.38,12.9,10.38,23.58v8.27C512.73,139.3,512.87,150.61,514.19,155.09 M459.77,139.74c0.64,5.1,4.07,7.95,10.29,8.54
		c1.46,0.41,3.23,0.61,5.28,0.61h1.41c7.68,0,12.88-2.58,15.57-7.74c0.53-1.12,0.79-2.55,0.79-4.32c0-6.33-3.81-10.47-11.44-12.41
		c-1.58-0.41-3.72-0.61-6.42-0.61c-9.03,1-14.19,4.58-15.48,10.73C459.18,135.61,459.18,137.34,459.77,139.74 M627.99,111.71
		c-1.64-14.61-8.75-20.9-29.65-21.37c-7.15-0.16-13.62,0.87-19.5,2.75c-5.4-2.39-13.38-3.75-23.96-4.08
		c-2.06-1.17-4.17-2.23-6.34-3.17c-7.74-5.98-13.41-8.98-16.98-8.98l-0.26,0.27c-2.52,0-3.96,1.96-4.32,5.89l0.44,4.14
		c2.35,5.52,3.52,15.28,3.52,29.29v1.06c0,10.44-0.53,19.15-1.59,26.13v0.17l0.18,0.27l-0.79,8.27c0,1.88,0.26,3.78,0.79,5.72
		c1.76,4.98,4.87,7.48,9.33,7.48h1.58c0.88,0,1.88-0.21,2.99-0.62c3.69-1.29,5.54-4.63,5.54-10.03
		c-1.35-11.97-2.02-21.59-2.02-28.86l-0.18-2.37l0.18-0.27l-0.18-2.2v-1.93c-0.58-9.38,1.08-15.16,5.02-17.33
		c4.23-1.76,8.27-1.9,12.14-0.44c2.81,1.35,4.19,6.66,4.14,15.93l-0.18,24.63V144l-0.17,2.37l0.17,0.09l-0.17,2.29v3.34
		c2.29,7.39,5.19,11.09,8.71,11.09h0.52c1,0,1.98-0.22,2.93-0.65c3.27-0.37,5.99-4.05,8.16-11.05v-2.46
		c0.53-2.86,0.79-6.11,0.79-9.77c-0.21-11.28-0.52-20.19-0.9-26.77c0.16-4.77,0.39-7.57,0.71-8.41c0.21-0.01,0.41-0.02,0.62-0.03
		c0.19,0.08,0.41,0.07,0.65-0.03c4.84-0.2,8.56-0.2,11.15,0c4.93,0.38,7.47,2.46,7.61,6.25c0.15,3.78,0.22,12.6,0.22,26.44
		l-0.27,8.53v1.94c0,0-0.38,1.82-0.17,2.38c0.02,0.06,0.15,0.12,0.17,0.18c0.19,0.52-0.15,1.65-0.17,2.2
		c-0.03,0.86-0.13,2.58,0,3.43c1.19,7.61,5.24,11,8.71,11h0.61c1.12,0,2.26-0.26,3.44-0.79c5.63-3.46,9.03-10.59,10.21-21.38
		C630.83,128.04,628.63,117.44,627.99,111.71 M54,116.96v-0.2c2.96-2.75,7.19-5.47,12.7-8.17c12.49-5.1,18.74-11.88,18.74-20.35
		v-0.51l-0.3-3.73c-2.82-7.99-6.75-11.99-11.79-11.99c-2.08,0-3.97,0.74-5.64,2.22c-2.09,2.15-6.45,8.93-13.1,20.35
		c-2.96,5.17-10.31,14.03-22.06,26.6h-0.51V53.58l0.8-10.27v-0.51c0-1.47-0.91-3.19-2.72-5.14c-5.91-9.2-13.16-13.8-21.76-13.8
		c-4.5,0-7.29,1.41-8.36,4.23v0.71C7.05,37.4,10.24,45.5,9.57,53.08v7.65l0.3,3.73l-0.3,0.21l0.3,4.63v9.37l0.21,3.63l-0.21,0.3
		l0.21,2.72v11.79l0.3,2.92l-0.3,0.2l0.3,5.64c0,11.24,0.13,20.9,0.38,29.06h-0.03l0.03,49.32c-0.39,11.94,3.95,11.28,3.95,11.28
		c1.48-1.28,4.84-5.71,7.32-13.77c7.26-19.88,9.5-35.6,9.5-46.68c0-1.28,1.08-2.99,3.23-5.14c0.46,0,1.55,0.84,3.23,2.52
		c9.94,12.23,16.96,23.74,21.05,34.56c1.42,5.24,8.09,14.12,10.78,15.94c13.1,3.89,21.9,5.84,26.4,5.84
		c5.18-0.4,7.76-2.04,7.76-4.39c0-1.48-8.05-7.01-11.44-10.51c-11.17-11.51-14.75-18.62-15.66-19.88L54,116.96z"/>
	<path class="st3" d="M23.2,239.88c3.13,0,5.72,0.86,7.8,2.58c2.04,1.72,3.06,3.89,3.06,6.51c0,1.6-0.4,2.98-1.2,4.16
		c-0.83,1.21-1.85,2.07-3.06,2.58c1.75,0.45,3.17,1.28,4.26,2.49c1.12,1.28,1.67,2.81,1.67,4.59c0,2.93-0.78,5.2-2.34,6.79
		c-1.6,1.63-3.75,2.58-6.46,2.87c-0.8,0.06-1.88,0.12-3.25,0.17c-1.37,0.05-3.06,0.07-5.07,0.07l-3.92-0.05
		c-0.89,0-1.63-0.29-2.2-0.86c-0.54-0.54-0.85-1.39-0.91-2.54l0.05-6.84l0.05-7.94c0-0.64,0-1.4,0-2.3c0-0.89-0.02-1.95-0.05-3.16
		c-0.03-1.21-0.05-2.26-0.05-3.16c0-0.89,0-1.64,0-2.25c0-0.92,0.24-1.67,0.72-2.25c0.51-0.61,1.15-0.97,1.91-1.1
		c1.47-0.19,4.48-0.29,9.04-0.29L23.2,239.88z M27.65,249.3c0-1.15-0.43-2.06-1.3-2.73c-0.83-0.64-1.94-0.99-3.32-1.05h-1.44h-2.12
		h-1.39v8.23c0.8,0,1.62-0.01,2.45-0.02c0.83-0.02,1.7-0.04,2.6-0.07c1.38,0,2.48-0.38,3.32-1.15c0.83-0.77,1.25-1.85,1.25-3.25
		L27.65,249.3z M18.08,259.02l0.1,7.89c0.26,0.03,0.83,0.05,1.73,0.05s2.16,0,3.8,0c1.6-0.06,2.9-0.41,3.89-1.05
		c0.99-0.67,1.49-1.67,1.49-3.01c0-2.65-1.83-3.97-5.48-3.97L18.08,259.02z M50.71,242.94c0.03-0.48,0.1-0.89,0.19-1.24
		c0.1-0.35,0.32-0.65,0.67-0.91c0.67-0.48,1.53-0.72,2.58-0.72h1.91c1.47,0,2.87,0,4.21,0c1.34,0,2.63-0.02,3.88-0.05
		c1.24-0.03,2.2-0.05,2.87-0.05c0.67,0,1.07,0,1.2,0c0.92,0,1.63,0.24,2.11,0.72c0.45,0.48,0.7,1.12,0.77,1.91
		c0.06,1.63-0.51,2.62-1.72,2.97c-0.67,0.1-4.21,0.14-10.62,0.14h-1.67v3.3l-0.1,4.35v0.33h1.53c1.34,0,2.6-0.01,3.78-0.02
		c1.18-0.02,2.28-0.04,3.3-0.07c1.24,0,2.15,0.19,2.73,0.57s0.84,1.16,0.81,2.34c-0.03,1.85-0.99,2.77-2.87,2.77h-9.28
		c-0.03,0.26-0.05,0.61-0.05,1.05c0,0.45,0,0.99,0,1.63v4.88c1.91,0,3.64-0.01,5.17-0.02c1.53-0.02,2.87-0.04,4.02-0.07h1.58h1.39
		c1.72,0,2.58,0.96,2.58,2.87c0,2.01-0.99,3.05-2.97,3.11H55.59c-1.91,0-3.22-0.21-3.92-0.62c-0.7-0.41-1.1-1.28-1.2-2.58
		c-0.06-0.61-0.06-1.13,0-1.58c0-0.06,0-0.27,0-0.62c0-0.35,0.02-0.86,0.05-1.53c0.03-1.34,0.08-3.16,0.14-5.45
		c0.03-1.15,0.05-2.25,0.05-3.3c0-1.05,0-2.07,0-3.06v-5.55v-5.45V242.94z M65.02,238.16c-0.41,0.03-0.94-0.19-1.58-0.67
		c-0.8-0.8-1.47-1.47-2.01-2.01c-0.54-0.54-0.97-0.99-1.29-1.34c-0.73,0.83-1.36,1.52-1.87,2.06c-0.51,0.54-0.93,0.96-1.24,1.24
		c-0.51,0.51-1.08,0.77-1.72,0.77c-0.45,0-0.93-0.22-1.44-0.67c-0.48-0.41-0.72-0.88-0.72-1.39c0-0.61,0.21-1.12,0.62-1.53
		c0.45-0.54,1-1.18,1.65-1.91c0.65-0.73,1.44-1.59,2.37-2.58c0.61-0.7,1.42-1.05,2.44-1.05c0.8,0,1.51,0.32,2.15,0.96
		c1.56,1.69,2.95,3.22,4.16,4.59c0.41,0.51,0.62,1.04,0.62,1.58c0,0.38-0.22,0.83-0.67,1.34c-0.45,0.48-0.93,0.72-1.44,0.72
		L65.02,238.16z M59.99,282.03c-1.12,0-2.01-0.38-2.68-1.15c-0.67-0.8-0.94-1.74-0.81-2.82c0.16-0.93,0.61-1.67,1.34-2.25
		c0.77-0.57,1.61-0.86,2.54-0.86c1.15,0,2.04,0.33,2.68,1c0.64,0.7,0.96,1.53,0.96,2.49c0,1.18-0.35,2.07-1.05,2.68
		c-0.73,0.64-1.66,0.96-2.77,0.96L59.99,282.03z M92.91,269.59c0,2.23-0.99,3.35-2.97,3.35c-2.23,0-3.4-0.96-3.49-2.87
		c0-1.02,0-2.47,0-4.35c0-1.88,0.02-4.21,0.05-6.99v-10.29v-5.45c0.03-0.89,0.46-1.61,1.29-2.15c0.8-0.51,1.71-0.77,2.73-0.77
		c0.8,0,1.47,0.19,2.01,0.57c0.51,0.38,1.08,1,1.72,1.87l10.62,14.88l2.54,3.78c-0.03-1.47-0.06-2.88-0.07-4.23
		c-0.02-1.36-0.02-2.67-0.02-3.95l-0.1-9.23c0-1.31,0.27-2.26,0.81-2.87c0.51-0.57,1.4-0.86,2.68-0.86c2.11,0,3.16,1.1,3.16,3.3
		v16.22v3.78v6.46c0,0.93-0.38,1.64-1.15,2.15c-0.8,0.54-1.72,0.81-2.77,0.81c-0.83,0-1.5-0.19-2.01-0.57
		c-0.48-0.35-1.02-1-1.63-1.96l-13.49-19.28c-0.06,2.07-0.06,5.36,0,9.86c0.03,2.27,0.06,4.11,0.07,5.53
		c0.02,1.42,0.02,2.45,0.02,3.09V269.59z M157.21,269.93c0.03,0.99-0.26,1.72-0.86,2.2c-0.64,0.48-1.52,0.72-2.63,0.72
		c-1.02,0-1.83-0.24-2.44-0.72c-0.64-0.48-0.93-1.2-0.86-2.15v-3.59l-0.05-6.46h-13.4l0.05,10.29c0,1.75-1.18,2.63-3.54,2.63
		c-2.17,0-3.25-0.91-3.25-2.73c0-0.64,0.01-1.59,0.02-2.87c0.02-1.28,0.04-2.89,0.07-4.83c0.06-3.89,0.06-6.89,0-8.99l-0.19-10.48
		c0-1.98,1.16-2.97,3.49-2.97c0.96,0,1.74,0.21,2.34,0.62c0.61,0.45,0.94,1.07,1,1.87v11.43h0.91h1.44h1.63h3.73h3.83l2.01-0.05
		c0-0.77,0-1.65,0-2.66c0-1-0.02-2.14-0.05-3.42c-0.03-1.28-0.05-2.33-0.05-3.16c0-0.83,0-1.45,0-1.87c0.1-1.91,1.26-2.87,3.49-2.87
		c1.05,0,1.85,0.26,2.39,0.77c0.57,0.54,0.86,1.28,0.86,2.2c0,0.22-0.01,1.46-0.02,3.71c-0.02,2.25-0.04,5.56-0.07,9.93
		L157.21,269.93z M192.57,245.76c-0.57-1.56-0.86-2.52-0.86-2.87c0-0.92,0.41-1.67,1.24-2.25c0.8-0.57,1.69-0.86,2.68-0.86
		c1.5,0,2.5,0.69,3.01,2.06c0.7,1.79,1.28,3.37,1.72,4.74l6.41,17.03c0.06-0.19,0.16-0.45,0.29-0.79c0.13-0.33,0.27-0.73,0.43-1.17
		c0.35-0.96,0.59-1.56,0.72-1.82l6.75-18.04c0.51-1.28,1.53-1.91,3.06-1.91c0.83,0,1.63,0.29,2.39,0.86
		c0.77,0.57,1.15,1.29,1.15,2.15c0,0.38-0.26,1.29-0.77,2.73c-0.38,1.02-1.63,4.08-3.73,9.19c-0.06,0.1-0.13,0.22-0.19,0.36
		c-0.06,0.14-0.13,0.33-0.19,0.55c-0.06,0.22-0.17,0.51-0.31,0.86c-0.14,0.35-0.31,0.78-0.5,1.29c-0.19,0.51-0.41,1.05-0.65,1.63
		c-0.24,0.57-0.52,1.2-0.84,1.87l-3.78,8.76c-0.7,1.75-2.07,2.63-4.11,2.63c-1.12,0-1.93-0.25-2.44-0.77
		c-0.51-0.51-1-1.32-1.48-2.44l-9.9-23.83L192.57,245.76z M235.87,252.61v-4.4v-5.22c-0.03-1.02,0.29-1.8,0.96-2.34
		c0.64-0.51,1.47-0.77,2.49-0.77c0.89,0,1.66,0.24,2.3,0.72c0.61,0.48,0.91,1.15,0.91,2.01v11.34v7.46l0.05,8.42
		c0,0.99-0.32,1.72-0.96,2.2c-0.64,0.48-1.45,0.72-2.44,0.72c-0.99,0-1.8-0.27-2.44-0.81c-0.64-0.51-0.93-1.28-0.86-2.3v-2.01v-2.25
		v-12.87V252.61z M259.65,242.94c0.03-0.48,0.1-0.89,0.19-1.24c0.1-0.35,0.32-0.65,0.67-0.91c0.67-0.48,1.53-0.72,2.58-0.72H265
		c1.47,0,2.87,0,4.21,0s2.63-0.02,3.88-0.05c1.24-0.03,2.2-0.05,2.87-0.05c0.67,0,1.07,0,1.2,0c0.92,0,1.63,0.24,2.11,0.72
		c0.45,0.48,0.7,1.12,0.77,1.91c0.06,1.63-0.51,2.62-1.72,2.97c-0.67,0.1-4.21,0.14-10.62,0.14h-1.67v3.3l-0.1,4.35v0.33h1.53
		c1.34,0,2.6-0.01,3.78-0.02c1.18-0.02,2.28-0.04,3.3-0.07c1.24,0,2.15,0.19,2.73,0.57s0.84,1.16,0.81,2.34
		c-0.03,1.85-0.99,2.77-2.87,2.77h-9.28c-0.03,0.26-0.05,0.61-0.05,1.05c0,0.45,0,0.99,0,1.63v4.88c1.91,0,3.64-0.01,5.17-0.02
		c1.53-0.02,2.87-0.04,4.02-0.07h1.58h1.39c1.72,0,2.58,0.96,2.58,2.87c0,2.01-0.99,3.05-2.97,3.11h-13.11
		c-1.91,0-3.22-0.21-3.92-0.62c-0.7-0.41-1.1-1.28-1.2-2.58c-0.06-0.61-0.06-1.13,0-1.58c0-0.06,0-0.27,0-0.62
		c0-0.35,0.02-0.86,0.05-1.53c0.03-1.34,0.08-3.16,0.14-5.45c0.03-1.15,0.05-2.25,0.05-3.3c0-1.05,0-2.07,0-3.06v-5.55v-5.45V242.94
		z M273.95,238.16c-0.41,0.03-0.94-0.19-1.58-0.67c-0.8-0.8-1.47-1.47-2.01-2.01c-0.54-0.54-0.97-0.99-1.29-1.34
		c-0.73,0.83-1.36,1.52-1.87,2.06c-0.51,0.54-0.93,0.96-1.24,1.24c-0.51,0.51-1.08,0.77-1.72,0.77c-0.45,0-0.93-0.22-1.44-0.67
		c-0.48-0.41-0.72-0.88-0.72-1.39c0-0.61,0.21-1.12,0.62-1.53c0.45-0.54,1-1.18,1.65-1.91c0.65-0.73,1.44-1.59,2.37-2.58
		c0.61-0.7,1.42-1.05,2.44-1.05c0.8,0,1.51,0.32,2.15,0.96c1.56,1.69,2.95,3.22,4.16,4.59c0.41,0.51,0.62,1.04,0.62,1.58
		c0,0.38-0.22,0.83-0.67,1.34c-0.45,0.48-0.93,0.72-1.44,0.72L273.95,238.16z M268.93,282.03c-1.12,0-2.01-0.38-2.68-1.15
		c-0.67-0.8-0.94-1.74-0.81-2.82c0.16-0.93,0.61-1.67,1.34-2.25c0.77-0.57,1.61-0.86,2.54-0.86c1.15,0,2.04,0.33,2.68,1
		c0.64,0.7,0.96,1.53,0.96,2.49c0,1.18-0.35,2.07-1.05,2.68c-0.73,0.64-1.66,0.96-2.77,0.96L268.93,282.03z M301.84,269.59
		c0,2.23-0.99,3.35-2.97,3.35c-2.23,0-3.4-0.96-3.49-2.87c0-1.02,0-2.47,0-4.35c0-1.88,0.02-4.21,0.05-6.99v-10.29v-5.45
		c0.03-0.89,0.46-1.61,1.29-2.15c0.8-0.51,1.71-0.77,2.73-0.77c0.8,0,1.47,0.19,2.01,0.57c0.51,0.38,1.08,1,1.72,1.87l10.62,14.88
		l2.54,3.78c-0.03-1.47-0.06-2.88-0.07-4.23c-0.02-1.36-0.02-2.67-0.02-3.95l-0.1-9.23c0-1.31,0.27-2.26,0.81-2.87
		c0.51-0.57,1.4-0.86,2.68-0.86c2.11,0,3.16,1.1,3.16,3.3v16.22v3.78v6.46c0,0.93-0.38,1.64-1.15,2.15
		c-0.8,0.54-1.72,0.81-2.77,0.81c-0.83,0-1.5-0.19-2.01-0.57c-0.48-0.35-1.02-1-1.63-1.96l-13.49-19.28c-0.06,2.07-0.06,5.36,0,9.86
		c0.03,2.27,0.06,4.11,0.07,5.53c0.02,1.42,0.02,2.45,0.02,3.09V269.59z M371.12,240.24c0.73-0.02,1.79-0.04,3.16-0.07
		c1.37-0.03,2.52-0.06,3.44-0.07c0.92-0.02,1.64-0.02,2.15-0.02c1.85,0,2.78,0.93,2.78,2.77c0,2.14-0.94,3.21-2.82,3.21l-7.18-0.05
		v1.91c-0.06,3.13-0.02,10.35,0.14,21.67c0.03,1.12-0.26,1.93-0.86,2.44c-0.64,0.54-1.53,0.81-2.68,0.81
		c-2.14,0-3.17-1.04-3.11-3.11l0.1-17.22v-3.21V246c-0.61,0.03-1.52,0.05-2.75,0.05c-1.23,0-2.8,0-4.71,0c-1.79,0-2.68-1-2.68-3.01
		c0-1.88,0.94-2.85,2.82-2.92h1.29c0.35,0,0.83-0.01,1.44-0.02c0.61-0.02,1.32-0.01,2.15,0.02l6.03,0.14
		C369.96,240.26,370.39,240.26,371.12,240.24z M423.22,269.93c0.03,0.99-0.26,1.72-0.86,2.2c-0.64,0.48-1.52,0.72-2.63,0.72
		c-1.02,0-1.83-0.24-2.44-0.72c-0.64-0.48-0.93-1.2-0.86-2.15v-3.59l-0.05-6.46h-13.4l0.05,10.29c0,1.75-1.18,2.63-3.54,2.63
		c-2.17,0-3.25-0.91-3.25-2.73c0-0.64,0.01-1.59,0.02-2.87c0.02-1.28,0.04-2.89,0.07-4.83c0.06-3.89,0.06-6.89,0-8.99l-0.19-10.48
		c0-1.98,1.16-2.97,3.49-2.97c0.96,0,1.74,0.21,2.34,0.62c0.61,0.45,0.94,1.07,1,1.87v11.43h0.91h1.44h1.63h3.73h3.83l2.01-0.05
		c0-0.77,0-1.65,0-2.66c0-1-0.02-2.14-0.05-3.42c-0.03-1.28-0.05-2.33-0.05-3.16c0-0.83,0-1.45,0-1.87c0.1-1.91,1.26-2.87,3.49-2.87
		c1.05,0,1.85,0.26,2.39,0.77c0.57,0.54,0.86,1.28,0.86,2.2c0,0.22-0.01,1.46-0.02,3.71c-0.02,2.25-0.04,5.56-0.07,9.93
		L423.22,269.93z M437.05,269.64c0-0.73,0.27-1.74,0.81-3.01c2.04-4.5,3.52-7.94,4.45-10.33l5.74-14.07
		c0.29-0.73,0.77-1.29,1.44-1.67c0.67-0.38,1.42-0.57,2.25-0.57c2.04,0,3.38,0.8,4.02,2.39c0.13,0.32,0.7,1.75,1.72,4.28
		c1.02,2.54,2.49,6.23,4.4,11.08c0.13,0.19,0.25,0.46,0.38,0.81c0.13,0.35,0.25,0.62,0.38,0.81c0.89,2.2,1.63,4.02,2.22,5.45
		c0.59,1.44,1.04,2.52,1.36,3.25c0.35,0.86,0.53,1.53,0.53,2.01c0,0.7-0.35,1.34-1.05,1.91c-0.73,0.57-1.6,0.86-2.58,0.86
		c-1.56,0-2.6-0.69-3.11-2.06l-2.2-5.65c-0.32-0.03-1.09-0.05-2.32-0.05c-1.23,0-2.94,0-5.14,0h-4.45l-2.06,5.45
		c-0.64,1.5-1.6,2.25-2.87,2.25c-1.08,0-1.99-0.25-2.73-0.77c-0.77-0.51-1.15-1.32-1.15-2.44L437.05,269.64z M456.76,238.35
		c-0.41,0.03-0.94-0.19-1.58-0.67c-0.8-0.8-1.47-1.47-2.01-2.01c-0.54-0.54-0.97-0.99-1.29-1.34c-0.73,0.83-1.36,1.52-1.87,2.06
		c-0.51,0.54-0.93,0.96-1.24,1.24c-0.51,0.51-1.08,0.77-1.72,0.77c-0.45,0-0.93-0.22-1.44-0.67c-0.48-0.41-0.72-0.88-0.72-1.39
		c0-0.61,0.21-1.12,0.62-1.53c0.45-0.54,1-1.18,1.65-1.91c0.65-0.73,1.44-1.59,2.37-2.58c0.61-0.7,1.42-1.05,2.44-1.05
		c0.8,0,1.51,0.32,2.15,0.96c1.56,1.69,2.95,3.22,4.16,4.59c0.41,0.51,0.62,1.04,0.62,1.58c0,0.38-0.22,0.83-0.67,1.34
		c-0.45,0.48-0.93,0.72-1.44,0.72L456.76,238.35z M451.83,248.01c-0.35,1.02-1.74,4.99-4.16,11.91c1.56,0,3.02-0.01,4.38-0.02
		c1.36-0.02,2.62-0.04,3.8-0.07c-0.16-0.38-0.78-2.2-1.87-5.45c-0.54-1.63-1-2.97-1.36-4.04c-0.37-1.07-0.63-1.86-0.79-2.37V248.01z
		 M465.85,228.49c0,2.23-1.1,4.13-3.3,5.69c-0.26,0.19-0.45,0.3-0.57,0.33c-1.02,0.51-1.8,0.4-2.34-0.33
		c-0.61-0.83-0.62-1.47-0.05-1.91c0.06-0.06,0.14-0.11,0.24-0.14c0.1-0.03,0.17-0.08,0.24-0.14c0.25-0.13,0.43-0.22,0.53-0.29
		c0.26-0.22,0.45-0.52,0.57-0.89c0.13-0.37,0.19-0.73,0.19-1.08l-0.05-0.29c-0.03-0.32-0.16-0.61-0.38-0.86
		c-0.29-0.29-0.64-0.43-1.05-0.43c-0.13,0-0.26,0.01-0.38,0.02c-0.13,0.02-0.27,0.04-0.43,0.07c-0.16,0.03-0.3,0.06-0.43,0.07
		c-0.13,0.02-0.26,0.02-0.38,0.02c-1.12,0-1.67-0.77-1.67-2.3c0-1.34,0.83-2.17,2.49-2.49c0.38-0.1,0.91-0.11,1.58-0.05
		c1.47,0.06,2.71,0.5,3.73,1.29C465.36,225.61,465.85,226.83,465.85,228.49z M488.2,251.51c-0.13,0.93-0.29,2.26-0.48,4
		c-0.19,1.74-0.43,3.9-0.72,6.48c-0.57,5.14-0.91,7.96-1,8.47c-0.32,1.75-1.44,2.63-3.35,2.63c-0.99,0-1.8-0.32-2.44-0.96
		c-0.64-0.61-0.88-1.42-0.72-2.44c0.32-2.04,0.75-4.86,1.29-8.47c0.26-1.82,0.52-3.65,0.79-5.5c0.27-1.85,0.53-3.76,0.79-5.74
		c0.26-1.98,0.47-3.6,0.65-4.86c0.17-1.26,0.29-2.16,0.36-2.7c0.19-0.8,0.72-1.39,1.58-1.77c0.89-0.38,1.82-0.56,2.77-0.53
		c1.59,0.06,2.74,1.08,3.44,3.06l6.27,18.42c0.03,0.06,0.06,0.14,0.07,0.24c0.02,0.1,0.06,0.21,0.12,0.33
		c0.06,0.13,0.1,0.23,0.12,0.31c0.02,0.08,0.04,0.15,0.07,0.22l0.33-0.91c1.47-3.64,3.81-9.86,7.03-18.66l0.19-0.33
		c0.06-0.13,0.11-0.23,0.14-0.31c0.03-0.08,0.06-0.15,0.1-0.22c0.03-0.06,0.07-0.14,0.12-0.22c0.05-0.08,0.1-0.18,0.17-0.31
		c0.13-0.22,0.27-0.41,0.43-0.57l0.48-0.48c0.19-0.19,0.41-0.33,0.67-0.43c0.32-0.13,0.56-0.21,0.72-0.24
		c0.77-0.03,1.34-0.03,1.72,0c1.4,0.16,2.3,0.59,2.68,1.29c0.25,0.73,0.54,2.28,0.86,4.64c0.32,2.39,0.8,6.32,1.44,11.77
		c0.32,2.74,0.6,5.11,0.84,7.1c0.24,1.99,0.44,3.66,0.6,5c0.06,1.02-0.24,1.79-0.91,2.3c-0.7,0.54-1.52,0.81-2.44,0.81
		c-2.01,0-3.11-0.88-3.3-2.63c-0.19-1.82-0.43-4.27-0.72-7.34c-0.29-3.08-0.64-6.85-1.05-11.32l-6.6,17.85
		c-0.73,1.6-2.03,2.36-3.88,2.3c-0.64-0.03-1.18-0.21-1.63-0.53c-0.45-0.29-0.73-0.57-0.86-0.86c-0.06-0.16-0.15-0.35-0.26-0.57
		c-0.11-0.22-0.25-0.51-0.41-0.86l-6.03-17.61L488.2,251.51z M560.15,251.51c-0.13,0.93-0.29,2.26-0.48,4
		c-0.19,1.74-0.43,3.9-0.72,6.48c-0.57,5.14-0.91,7.96-1,8.47c-0.32,1.75-1.44,2.63-3.35,2.63c-0.99,0-1.8-0.32-2.44-0.96
		c-0.64-0.61-0.88-1.42-0.72-2.44c0.32-2.04,0.75-4.86,1.29-8.47c0.26-1.82,0.52-3.65,0.79-5.5c0.27-1.85,0.53-3.76,0.79-5.74
		c0.26-1.98,0.47-3.6,0.65-4.86c0.17-1.26,0.29-2.16,0.36-2.7c0.19-0.8,0.72-1.39,1.58-1.77c0.89-0.38,1.82-0.56,2.77-0.53
		c1.59,0.06,2.74,1.08,3.44,3.06l6.27,18.42c0.03,0.06,0.06,0.14,0.07,0.24c0.02,0.1,0.06,0.21,0.12,0.33
		c0.06,0.13,0.1,0.23,0.12,0.31c0.02,0.08,0.04,0.15,0.07,0.22l0.33-0.91c1.47-3.64,3.81-9.86,7.03-18.66l0.19-0.33
		c0.06-0.13,0.11-0.23,0.14-0.31c0.03-0.08,0.06-0.15,0.1-0.22c0.03-0.06,0.07-0.14,0.12-0.22c0.05-0.08,0.1-0.18,0.17-0.31
		c0.13-0.22,0.27-0.41,0.43-0.57l0.48-0.48c0.19-0.19,0.41-0.33,0.67-0.43c0.32-0.13,0.56-0.21,0.72-0.24
		c0.77-0.03,1.34-0.03,1.72,0c1.4,0.16,2.3,0.59,2.68,1.29c0.25,0.73,0.54,2.28,0.86,4.64c0.32,2.39,0.8,6.32,1.44,11.77
		c0.32,2.74,0.6,5.11,0.84,7.1c0.24,1.99,0.44,3.66,0.6,5c0.06,1.02-0.24,1.79-0.91,2.3c-0.7,0.54-1.52,0.81-2.44,0.81
		c-2.01,0-3.11-0.88-3.3-2.63c-0.19-1.82-0.43-4.27-0.72-7.34c-0.29-3.08-0.64-6.85-1.05-11.32l-6.6,17.85
		c-0.73,1.6-2.03,2.36-3.88,2.3c-0.64-0.03-1.18-0.21-1.63-0.53c-0.45-0.29-0.73-0.57-0.86-0.86c-0.06-0.16-0.15-0.35-0.26-0.57
		c-0.11-0.22-0.25-0.51-0.41-0.86l-6.03-17.61L560.15,251.51z M610.63,258.97l-9.09-13.78c-0.51-0.8-0.77-1.47-0.77-2.01
		c0-0.86,0.37-1.61,1.1-2.25c0.73-0.64,1.55-0.96,2.44-0.96c1.08,0,1.93,0.49,2.54,1.48l7.94,12.77c0.03-0.1,2.61-4.31,7.75-12.63
		c0.73-1.12,1.69-1.67,2.87-1.67c0.8,0,1.56,0.29,2.3,0.86c0.7,0.57,1.05,1.24,1.05,2.01c0,0.73-0.26,1.45-0.77,2.15l-9.9,15.07
		v9.95c0,0.86-0.33,1.53-1,2.01c-0.67,0.48-1.48,0.72-2.44,0.72c-1.02,0-1.83-0.29-2.44-0.86c-0.61-0.57-0.91-1.32-0.91-2.25
		c0-0.19,0-0.44,0-0.74c0-0.3,0.02-0.66,0.05-1.08c0.03-0.41,0.05-0.77,0.05-1.08c0-0.3,0-0.57,0-0.79v-5.84L610.63,258.97z
		 M611.2,236.15c-0.16,0.93-0.85,1.39-2.06,1.39c-0.64,0-1.16-0.21-1.58-0.62c-0.45-0.41-0.69-1.04-0.72-1.87
		c0.1-1.37,0.57-2.47,1.44-3.3c0.89-0.83,2.03-1.24,3.4-1.24c0.89,0,1.69,0.22,2.39,0.67c0.73,0.48,1.34,0.91,1.82,1.29
		c0.51,0.45,0.99,0.69,1.44,0.72c0.7,0,1.07-0.4,1.1-1.2c0.16-1.02,0.88-1.53,2.15-1.53c0.54,0,1.04,0.19,1.48,0.57
		c0.41,0.38,0.62,0.86,0.62,1.44c0,1.69-0.43,2.97-1.29,3.83c-0.86,0.86-1.99,1.29-3.4,1.29c-0.83,0-1.6-0.22-2.3-0.67
		c-0.61-0.38-1.2-0.81-1.77-1.29c-0.54-0.45-1.04-0.69-1.48-0.72c-0.7,0-1.08,0.37-1.15,1.1L611.2,236.15z"/>
	<g>
		<g>
			<path class="st3" d="M765.96,45.83c14.4,21.89,18.49,50.53,18.77,70.38c0.44,30.91-2.58,57.9-10.28,56.37
				c-4.82-0.96,2.06-28.97-36.43-47.24c-25.02-11.88-63.42-2.23-64.48-35.71c1.59-30.28,46.04-20.4,46.04-20.4
				s-10.64-24.12,6.4-36.99C740.32,21.41,757.17,32.47,765.96,45.83z"/>
			<path class="st2" d="M793.13,265.49c-0.7,6.17-5.02,11.66-10.2,15.31c-9.04,6.37-18.6,4.45-28.89,3.72
				c-5.78-0.41-8.8,6.81-13.74,9.18c-6.05,2.91-13.36,3.27-19.85,1.49c-20.84-5.72-35-23.24-41.64-47.28
				c-4.79-17.33,1.52-35.77,11.71-46.42c8.71-9.1,22.53-10.02,34.56-8.5c14.81,1.87,32.08,6.03,46.28-0.02
				c4.89-2.08,8.91-5.76,12.32-12.75c1.61-3.31,6.84-3.7,6.93,1.29c0.13,7.11-2.34,15.5-3.28,23.47
				C784.77,226.61,796.6,235.07,793.13,265.49z"/>
			<path class="st9" d="M837.9,103.65c-0.46-0.22,23.64-57.51,82.67-57.19c27.52,0.15,55.35,13.28,39.56,48.29
				c0,0,23.41,8.8,17.39,28.57c-4.61,15.13-20.32,17.79-31.73,10.55c-26.96-17.11-51.72-20.85-82.68,1.56c0,0-2.6-9.44-9.33-18.1
				C850.05,112.52,844.55,106.77,837.9,103.65z"/>
			<path class="st7" d="M827.26,99.48c0,0-6.96-4.88-23.98-3.08c0,0-19.81-28.07-18.44-57.61c0.97-20.93,15.56-28.81,22.57-29.33
				c20.33-1.52,20.09,15.94,20.09,15.94s13.7-27.22,35.51-23.68c19.4,3.15,21.87,25.21,9.25,35.32
				c-7.08,5.68-16.09,9.99-27.53,23.75C832.22,75.84,827.26,99.48,827.26,99.48z"/>
		</g>
		<path class="st10" d="M946.02,179.46c-1.6-5.5-3.34-11.48-6.4-17.51c-16.14-31.73-63.64-18.67-74-15.43
			c-0.16,13.97-4.35,19.16,1.1,25.19c2.83,3.66,5.94,6.83,8.77,10.5c4.23,4.58,4.78,7.66,0.01,11.27c-3.73,2.82-9,4.38-4.81,9.47
			c2.25,2.73,2.61,4.5,0.67,6.23c-1.99,1.49-0.88,0.66-2.87,2.15c2.76,2.26,3.48,4.46,1.19,7.77c-2.81,3.68-5.18,2.55-3.72,13.44
			c0.67,4.53-1.24,7.53-2.6,8.76c-2.75,2.49-6.72,3.75-13.78,1.86c-3.03-0.78-8.29-1.71-9.25-1.81c-3.7-0.37-7.71-1.1-13.21,3.6
			c-10.79,9.23-10.32,47.57,24.73,49.06c18.88,0.8,32.87-16.53,32.87-16.53c52.47,28.74,68.52-31.08,68.52-31.08
			s20.94,2.67,24.81-19.1c2.01-11.31-3.32-20.24-14.82-24.07C951.84,199.43,949.2,190.39,946.02,179.46z"/>
	</g>
</g>
</svg>
