<?xml version="1.0" encoding="UTF-8"?>
<svg id="Layer_1" data-name="Layer 1" xmlns="http://www.w3.org/2000/svg" viewBox="0 0 253 91">
  <defs>
    <style>
      .cls-1 {
        fill: #c32022;
      }

      .cls-1, .cls-2, .cls-3, .cls-4, .cls-5, .cls-6, .cls-7 {
        stroke-width: 0px;
      }

      .cls-2 {
        fill: #ffd65c;
      }

      .cls-3 {
        fill: #f36e22;
      }

      .cls-4 {
        fill: #ffb420;
      }

      .cls-5 {
        fill: #9f101b;
      }

      .cls-6 {
        fill: #fff;
      }

      .cls-7 {
        fill: #352727;
      }
    </style>
  </defs>
  <path class="cls-7" d="M98.21,66.99h.99v-5.81h1.86v-.82h-4.7v.82h1.86v5.81ZM103.1,64.2h1.18l1.33,2.78h1.1l-1.45-2.88c.91-.2,1.31-.77,1.31-1.86,0-.64-.15-1.08-.47-1.4-.34-.34-.81-.48-1.62-.48h-2.36v6.62h.99v-2.78ZM103.08,63.41v-2.25h1.29c.83,0,1.21.34,1.21,1.13s-.35,1.12-1.15,1.12h-1.35ZM111.63,65.6l.46,1.38h1.08l-2.41-6.62h-.96l-2.41,6.62h1.08l.46-1.38h2.7ZM111.39,64.81h-2.22l1.11-3.24,1.1,3.24ZM113.75,66.99h.97v-4.95l2.95,4.95h.97v-6.62h-.97v4.95l-2.95-4.95h-.97v6.62ZM122.55,64.2h1.24v.51c0,1.05-.45,1.56-1.39,1.56-1.01,0-1.39-.53-1.39-1.96v-1.26c0-1.42.38-1.96,1.38-1.96.73,0,1.17.35,1.26,1.03l.92-.06c-.07-1.16-.83-1.77-2.22-1.77-.83,0-1.4.22-1.82.71-.38.44-.52.97-.52,1.99v1.38c0,.95.11,1.46.43,1.88.41.57,1.02.83,1.98.83.85,0,1.46-.24,1.87-.74.35-.43.48-.92.48-1.84v-1.07h-2.23v.77ZM128.89,66.99h.99v-5.81h1.85v-.82h-4.7v.82h1.85v5.81ZM132.78,66.99h.99v-2.94h2.54v2.94h.99v-6.62h-.99v2.87h-2.54v-2.87h-.99v6.62ZM138.69,64.48c0,.87.13,1.38.45,1.8.42.55,1.02.8,1.94.8.84,0,1.4-.2,1.84-.69.4-.43.55-.96.55-1.91v-1.61c0-.87-.13-1.38-.45-1.8-.42-.55-1.02-.8-1.93-.8-.85,0-1.41.2-1.85.69-.4.44-.55.96-.55,1.91v1.61ZM142.48,64.39c0,1.33-.42,1.88-1.39,1.88s-1.4-.56-1.4-1.88v-1.43c0-1.33.42-1.88,1.4-1.88s1.39.56,1.39,1.88v1.43ZM141.08,58.94l.59.74h.95l-1.22-1.32h-.65l-1.21,1.32h.95l.58-.74ZM144.86,66.99h.96v-4.95l2.95,4.95h.97v-6.62h-.97v4.95l-2.95-4.95h-.96v6.62ZM153.65,64.2h1.24v.51c0,1.05-.45,1.56-1.39,1.56-1.01,0-1.39-.53-1.39-1.96v-1.26c0-1.42.38-1.96,1.38-1.96.73,0,1.17.35,1.26,1.03l.92-.06c-.07-1.16-.83-1.77-2.22-1.77-.84,0-1.4.22-1.82.71-.38.44-.52.97-.52,1.99v1.38c0,.95.11,1.46.43,1.88.41.57,1.02.83,1.98.83.85,0,1.46-.24,1.87-.74.35-.43.48-.92.48-1.84v-1.07h-2.23v.77ZM159.99,66.99h.99v-5.81h1.86v-.82h-4.7v.82h1.86v5.81ZM163.88,66.99h.99v-6.62h-.99v6.62ZM166.42,66.99h.96v-4.95l2.95,4.95h.96v-6.62h-.96v4.95l-2.95-4.95h-.96v6.62ZM174.48,63.24h-.74v.8h.74v2.95h2.18c1.67.02,2.49-.83,2.45-2.54v-1.54c.05-1.71-.78-2.57-2.45-2.54h-2.18v2.88ZM175.47,63.24v-2.08h1.01c1.16-.03,1.62.49,1.63,1.83v1.36c0,1.35-.47,1.86-1.63,1.84h-1.01v-2.15h1.39v-.8h-1.39ZM180.5,66.99h.99v-6.62h-.99v6.62ZM183.05,66.99h4v-.82h-3.01v-2.12h2.54v-.82h-2.54v-2.05h2.99v-.82h-3.97v6.62ZM185.06,58.94l.59.74h.94l-1.21-1.32h-.65l-1.22,1.32h.95l.59-.74ZM184.62,68.84h.92v-1.06h-.92v1.06ZM188.19,66.99h.97v-4.95l2.95,4.95h.96v-6.62h-.96v4.95l-2.95-4.95h-.97v6.62ZM197.43,66.99h.99v-5.81h1.86v-.82h-4.7v.82h1.86v5.81ZM201.13,60.36v4.17c0,.88.07,1.29.32,1.66.4.6,1.03.88,2.01.88.92,0,1.49-.23,1.91-.77.32-.39.41-.82.41-1.77v-2.16c.48-.25.65-.34.83-.47.52-.37.74-.74.74-1.23,0-.15,0-.24-.07-.41h-.84c.1.19.14.32.14.52,0,.44-.21.71-.82.98v-1.4h-.99v4.17c0,.56-.05.87-.16,1.11-.21.44-.57.62-1.17.62s-.9-.16-1.13-.54c-.15-.26-.2-.56-.2-1.2v-4.17h-.99ZM203.92,59.8c0-.29.02-.33.17-.52.26-.32.3-.38.3-.59,0-.45-.32-.71-.88-.71-.28,0-.46.04-.79.15l.16.53c.22-.1.34-.13.47-.13.17,0,.26.07.26.19,0,.07-.03.15-.08.23-.23.32-.25.37-.26.72v.12h.66ZM210.6,66.99h.99v-5.81h1.85v-.82h-4.7v.82h1.86v5.81ZM214.17,64.48c0,.87.13,1.38.45,1.8.42.55,1.02.8,1.94.8.84,0,1.4-.2,1.84-.69.4-.43.55-.96.55-1.91v-1.61c0-.87-.13-1.38-.45-1.8-.42-.55-1.02-.8-1.93-.8-.85,0-1.41.2-1.85.69-.4.44-.55.96-.55,1.91v1.61ZM217.95,64.39c0,1.33-.42,1.88-1.39,1.88s-1.4-.56-1.4-1.88v-1.43c0-1.33.42-1.88,1.4-1.88s1.39.56,1.39,1.88v1.43ZM216.84,58.78c.01-.19.01-.22.13-.33.2-.21.24-.28.24-.44,0-.33-.28-.54-.74-.54-.25,0-.43.04-.67.12l.14.43c.18-.08.28-.11.39-.11.14,0,.21.04.21.11,0,.05-.03.11-.07.16-.2.24-.21.28-.22.6h.58ZM216.54,59.42l.57.5h.9l-1.17-.99h-.62l-1.16.99h.89l.59-.5ZM220.34,66.99h.96v-4.95l2.95,4.95h.97v-6.62h-.97v4.95l-2.95-4.95h-.96v6.62ZM229.13,64.2h1.24v.51c0,1.05-.45,1.56-1.39,1.56-1.01,0-1.39-.53-1.39-1.96v-1.26c0-1.42.38-1.96,1.38-1.96.73,0,1.17.35,1.26,1.03l.92-.06c-.06-1.16-.83-1.77-2.22-1.77-.83,0-1.4.22-1.82.71-.38.44-.52.97-.52,1.99v1.38c0,.95.11,1.46.43,1.88.41.57,1.02.83,1.98.83.85,0,1.46-.24,1.87-.74.35-.43.48-.92.48-1.84v-1.07h-2.23v.77ZM234.28,66.99h.99v-2.94h2.54v2.94h.99v-6.62h-.99v2.87h-2.54v-2.87h-.99v6.62ZM245.23,60.26c.1.19.14.32.14.51,0,.34-.15.57-.57.84-.33-.91-1.06-1.35-2.23-1.35-.84,0-1.4.21-1.84.69-.4.44-.55.96-.55,1.91v1.61c0,.87.13,1.38.45,1.8.42.55,1.02.8,1.94.8.84,0,1.4-.2,1.84-.69.4-.43.55-.96.55-1.91v-1.61c0-.27-.01-.44-.06-.7.36-.21.49-.29.67-.44.35-.29.55-.68.55-1.09,0-.15-.02-.23-.07-.39h-.84ZM243.98,64.39c0,1.33-.42,1.88-1.39,1.88s-1.4-.56-1.4-1.88v-1.43c0-1.32.42-1.87,1.4-1.87s1.39.56,1.39,1.87v1.43ZM242.02,68.84h.92v-1.06h-.92v1.06ZM247.65,64.5h1.19c.8,0,1.27-.13,1.62-.45.4-.36.58-.87.58-1.63,0-.71-.15-1.17-.49-1.53-.36-.38-.83-.53-1.71-.53h-2.18v6.62h.99v-2.49ZM247.64,63.69v-2.53h1.21c.84,0,1.22.38,1.22,1.27s-.37,1.26-1.22,1.26h-1.21Z"/>
  <path class="cls-3" d="M6.1,27.42C2.26,33.7.16,40.89,0,48.26c-.15,7.37,1.66,14.64,5.24,21.07,3.58,6.43,8.81,11.79,15.14,15.51,6.33,3.73,13.54,5.69,20.88,5.69s14.55-1.97,20.88-5.69c6.33-3.73,11.56-9.08,15.14-15.51,3.58-6.43,5.39-13.71,5.24-21.07-.15-7.37-2.25-14.56-6.09-20.84H6.1Z"/>
  <path class="cls-1" d="M62.33,27.42H20.25c-4.75,4.28-8.09,9.9-9.59,16.12-1.5,6.23-1.08,12.76,1.2,18.74,2.28,5.98,6.31,11.13,11.57,14.76,5.26,3.63,11.48,5.57,17.86,5.57s12.61-1.94,17.86-5.57c5.26-3.63,9.29-8.78,11.57-14.76,2.28-5.98,2.7-12.52,1.2-18.74-1.5-6.23-4.84-11.85-9.59-16.12ZM29.9,68.28h-8v-27.73l4.53-8.63h3.45l.02,36.35ZM64.81,61.69h-4.64v6.59h-8v-6.59h-18.37v-5.82l12.35-23.92h8.84l-11.64,22.26h8.84v-9.28l2.61-4.66h5.37v13.94h4.64v7.47Z"/>
  <path class="cls-5" d="M41.31,78.19c-7.98,0-15.65-3.04-21.48-8.51-5.83-5.47-9.37-12.95-9.92-20.94-.05.74-.08,1.44-.08,2.17.13,8.3,3.5,16.22,9.39,22.04,5.89,5.83,13.83,9.09,22.1,9.09s16.21-3.27,22.1-9.09c5.89-5.83,9.26-13.74,9.39-22.04.01-.71-.01-1.41-.08-2.12-.56,7.98-4.11,15.45-9.94,20.91-5.83,5.46-13.5,8.49-21.47,8.49Z"/>
  <path class="cls-5" d="M52.16,68.28h7.98v-6.59h4.64v-7.47h-4.64v-13.94h-5.37l-2.61,4.66v9.28h-8.84l11.68-22.26h-8.84l-12.37,23.92v5.82h18.37v6.59Z"/>
  <path class="cls-5" d="M29.88,31.96h-3.46l-4.53,8.59v27.73h7.98V31.96Z"/>
  <path class="cls-4" d="M76.44,27.42h-7.9c4.48,5.23,7.37,11.64,8.32,18.48.96,6.83-.06,13.79-2.93,20.06-2.87,6.27-7.47,11.58-13.25,15.3-5.78,3.72-12.51,5.7-19.38,5.7s-13.6-1.98-19.38-5.7c-5.78-3.72-10.38-9.04-13.25-15.3-2.87-6.27-3.88-13.23-2.93-20.06.96-6.83,3.85-13.24,8.32-18.48h-7.97C2.26,33.7.16,40.89,0,48.26c-.15,7.37,1.66,14.64,5.24,21.07,3.58,6.43,8.81,11.79,15.14,15.51,6.33,3.73,13.54,5.69,20.88,5.69s14.55-1.97,20.88-5.69c6.33-3.73,11.56-9.08,15.14-15.51,3.58-6.43,5.39-13.71,5.24-21.07-.15-7.37-2.25-14.56-6.09-20.84Z"/>
  <path class="cls-1" d="M6.84.5h15.39v22.45H6.84c-.98,0-1.91-.39-2.61-1.08-.69-.69-1.08-1.63-1.08-2.62V4.2c0-.98.39-1.92,1.08-2.62.69-.69,1.63-1.08,2.61-1.08Z"/>
  <path class="cls-3" d="M41.31.5h-19.08v22.45h19.08V.5Z"/>
  <path class="cls-4" d="M60.39.5h-19.08v22.45h19.08V.5Z"/>
  <path class="cls-2" d="M60.43.5h15.39c.98,0,1.91.39,2.61,1.08.69.69,1.08,1.63,1.08,2.62v15.04c0,.98-.39,1.92-1.08,2.62-.69.69-1.63,1.08-2.61,1.08h-15.39V.5Z"/>
  <path class="cls-6" d="M16.15,19l-4.56-5.73h-1.23v5.73h-3.45V4.47h3.45v5.65h1.27l4.14-5.66h3.95v.38l-5.29,6.7,5.29,6.5v.95h-3.57ZM37.31,19h-11.05V4.47h11.05v3.12h-7.64v2.53h7.17v3.12h-7.17v2.66h7.64v3.1ZM57.54,19h-3.34l-6.63-8.88v8.88h-3.41V4.47h3.29l6.63,8.88V4.47h3.4v14.53h.06ZM76.43,19h-3.47v-5.7h-6.08v5.7h-3.45V4.47h3.45v5.59h6.08v-5.59h3.45l.02,14.53Z"/>
  <path class="cls-6" d="M29.88,68.28h-7.97v-27.73l4.53-8.63h3.45v36.35ZM64.79,61.69h-4.64v6.59h-7.98v-6.59h-18.37v-5.82l12.35-23.92h8.84l-11.64,22.26h8.84v-9.28l2.61-4.66h5.37v13.94h4.64l-.02,7.47Z"/>
  <path class="cls-7" d="M104.28,35.99l5.23-6.62h6.15l-7.35,8.75,7.39,9.86h-6.15l-5.35-7.53h-1.69v7.53h-5.02v-24.01h5.02v12.02h1.76Z"/>
  <path class="cls-7" d="M134.04,38.61c0,.59-.05,1.27-.09,1.69h-13.19c.54,2.7,2.42,3.85,4.79,3.85,1.62,0,3.36-.66,4.69-1.78l2.93,3.22c-2.11,1.95-4.81,2.82-7.93,2.82-5.7,0-9.65-3.87-9.65-9.74s3.85-9.86,9.41-9.86c5.35.02,9.01,4.01,9.04,9.81ZM120.78,36.88h8.24c-.47-2.37-1.9-3.73-4.06-3.73-2.35,0-3.73,1.43-4.18,3.73Z"/>
  <path class="cls-7" d="M154.39,36.08v11.85h-5.02v-10.23c0-2.7-1.34-4.18-3.64-4.18-2.16,0-3.94,1.41-3.94,4.2v10.19h-5.02v-18.59h4.88v2.18c1.31-1.97,3.36-2.7,5.47-2.7,4.27.02,7.28,2.96,7.28,7.28Z"/>
  <path class="cls-7" d="M168.24,28.83c4.22,0,7.23,2.93,7.23,7.25v11.85h-5.02v-10.23c0-2.7-1.34-4.18-3.64-4.18-2.16,0-3.94,1.41-3.94,4.2v10.19h-5.02v-23.99h5.02v7.42c1.36-1.85,3.33-2.51,5.37-2.51Z"/>
  <path class="cls-7" d="M214.62,45.28c0,1.69-1.46,3.15-3.12,3.15s-3.15-1.46-3.15-3.15,1.48-3.12,3.15-3.12,3.12,1.43,3.12,3.12Z"/>
  <path class="cls-7" d="M219.75,48.09l-7.35-18.61h5.44l4.81,13.33,4.86-13.33h5.28l-7.27,18.61h-5.77Z"/>
  <path class="cls-7" d="M252,36.24v11.85h-5.02v-10.23c0-2.7-1.34-4.18-3.64-4.18-2.16,0-3.94,1.41-3.94,4.2v10.19h-5.02v-18.59h4.88v2.18c1.31-1.97,3.36-2.7,5.47-2.7,4.25.02,7.28,2.96,7.28,7.28Z"/>
  <path class="cls-7" d="M181.76,23.92l-2.93,5.59v18.59h5.19v-24.15l-2.25-.02Z"/>
  <path class="cls-7" d="M203.65,29.32h-3.5l-1.69,3.03v5.98h-5.7l7.56-14.39h-5.75l-8.03,15.47v3.78h11.92v4.91h5.19v-4.91h3.03v-4.86h-3.03v-9.01Z"/>
</svg>