<svg width="155" height="71" viewBox="0 0 155 71" fill="none" xmlns="http://www.w3.org/2000/svg">
<path fill-rule="evenodd" clip-rule="evenodd" d="M27.8756 37.8226C27.8756 39.2338 28.0101 40.3292 28.269 41.126C28.528 41.9227 28.9909 42.4226 29.6523 42.6048V43.8148H22.6206C21.5126 43.555 20.2476 42.5967 20.2476 42.5967C21.4567 42.8196 22.2525 42.4722 22.2543 42.4722C23.2468 42.0075 22.8056 40.2255 23.0041 39.8609C23.1079 39.5487 23.7106 39.5388 23.7629 38.8937C23.7575 38.5328 23.467 38.3072 23.2152 38.0482C23.2829 37.8452 24.049 37.8118 24.0905 37.3264C24.1636 36.8752 23.6393 36.7281 23.6483 35.8827C23.8117 35.5136 24.5299 35.5867 24.9332 35.0923C25.0289 34.9678 25.5233 34.6763 25.0162 33.6775C24.3368 32.5406 23.0492 31.5246 23.2847 30.1377C23.3957 29.1109 24.935 26.6187 21.1075 23.0366C21.1075 23.0366 22.7316 26.8091 17.3349 31.0048C13.067 34.0654 13.3874 36.6451 15.192 38.3342C15.192 38.3342 19.1071 40.9807 20.8413 36.3997C20.8413 36.3997 21.3384 43.361 14.7904 41.9561C14.7904 41.9561 16.3938 42.8918 16.5481 43.7805C14.6292 44.7953 12.4411 45.3024 9.98387 45.3018C7.07424 45.3018 4.73426 44.4952 2.96394 42.8819C1.18731 41.264 0.303955 39.0931 0.303955 36.3492C0.303955 33.7271 1.08174 31.557 2.62739 29.8526C4.17303 28.1481 6.48834 27.0672 9.56158 26.616L17.1003 25.5215C18.1371 25.3681 18.877 25.0794 19.3281 24.6571C19.7793 24.2349 20.0003 23.6971 20.0003 23.0438C20.0003 21.8627 19.5681 20.9685 18.7046 20.3549C17.8411 19.7414 16.5238 19.4427 14.748 19.4427C12.8848 19.4427 11.5304 19.7784 10.6759 20.4506C9.82145 21.1228 9.2927 22.2272 9.09058 23.7449H1.29649C1.68989 20.0094 2.96094 17.2916 5.10962 15.5917C7.25109 13.8821 10.6762 13.0273 15.3851 13.0273C19.1783 13.0273 22.2098 13.7862 24.4794 15.3039C26.749 16.8215 27.8823 19.0171 27.8792 21.8907L27.8756 37.8226Z" fill="#F35279"/>
<path d="M44.592 0.143066C42.2843 0.143066 39.8989 0.901698 38.1306 2.6588C35.6856 5.01587 34.8736 8.59669 34.8736 13.1019L34.8757 14.3192H30.6023V16.7269H34.8764V43.0498H37.5905V16.7269H45.6535V14.3192H37.5905V13.0995C37.5905 10.8768 37.8608 8.18083 38.8468 6.05489C39.3378 4.99634 39.9982 4.09657 40.8738 3.46191C41.7442 2.83101 42.8499 2.44528 44.2679 2.44528C46.0152 2.44528 46.9728 2.88492 47.7999 3.33283L48.1445 3.51944L49.4255 1.51621L49.0953 1.30412C48.2115 0.73661 46.5079 0.143066 44.592 0.143066Z" fill="#585858"/>
<path d="M127.245 0.818891H124.528V43.0498H127.245V0.818891Z" fill="#585858"/>
<path d="M117.272 4.20704C115.854 4.20704 114.913 5.43354 114.913 6.68769C114.913 7.92562 115.785 9.16925 117.217 9.16925C118.651 9.16925 119.577 8.00406 119.577 6.68769C119.577 5.38701 118.697 4.20704 117.272 4.20704Z" fill="#585858"/>
<path fill-rule="evenodd" clip-rule="evenodd" d="M54.5893 13.693C52.3033 13.693 49.078 14.3358 46.2913 16.2143L45.9912 16.4166L47.1449 18.4772L47.5249 18.2145C49.5655 16.8036 52.0791 16.0475 54.4272 16.0475C56.3115 16.0475 57.6906 16.4596 58.7071 17.0996C59.7236 17.7396 60.4079 18.6265 60.8697 19.6243C61.7278 21.4785 61.8013 23.6723 61.8075 25.2594C55.9726 25.2289 51.5835 26.1808 48.6231 27.9549C45.5673 29.7862 44.0597 32.4803 44.0597 35.7707C44.0597 37.655 44.7254 39.6317 46.1708 41.1413C47.623 42.6581 49.8339 43.6733 52.8583 43.6733C57.2301 43.6733 60.3731 41.4706 62.0147 39.414L62.3872 43.048H65.0302L64.9524 42.5879C64.5786 40.3796 64.524 38.2162 64.524 36.0315V24.9837C64.524 22.5895 64.1855 19.7757 62.7655 17.5502C61.3238 15.2906 58.8029 13.693 54.5893 13.693ZM46.83 35.4603C46.83 33.6922 47.4265 32.3365 48.3949 31.2855C49.3708 30.2263 50.7435 29.4568 52.3205 28.9069C55.3315 27.8571 58.9917 27.6405 61.7538 27.667V34.0004C61.7538 35.04 61.1623 36.8917 59.7242 38.4839C58.3017 40.0589 56.0582 41.3711 52.7496 41.3711C51.2383 41.3711 49.7596 40.9022 48.6636 39.943C47.5749 38.9902 46.83 37.5244 46.83 35.4603Z" fill="#585858"/>
<path d="M82.0043 13.6948C79.5503 13.6948 77.5608 14.2871 75.93 15.3457C74.6282 16.1908 73.5715 17.3222 72.6912 18.655L72.5551 14.321H69.8737L69.9059 14.7462C70.0671 16.8711 70.1212 18.6334 70.1212 21.0235V43.0498H72.8381V25.3482C72.8381 23.2645 73.7826 20.929 75.3721 19.1141C76.9594 17.3019 79.1523 16.0493 81.6249 16.0493C83.9803 16.0493 85.7658 17.0165 86.9753 18.6047C88.1946 20.2059 88.8438 22.462 88.8438 25.0369V43.0498H91.5597V24.5659C91.5597 22.5424 92.5114 20.406 94.0503 18.773C95.588 17.1414 97.6756 16.0493 99.9147 16.0493C102.495 16.0493 104.38 17.0227 105.637 18.7656C106.909 20.5298 107.565 23.1221 107.565 26.3904V43.0498H110.282L110.286 26.182C110.286 20.6236 108.51 17.4765 106.352 15.7285C104.208 13.9924 101.759 13.6948 100.513 13.6948C94.5851 13.6948 91.7587 17.1043 90.4466 19.5402C89.0777 16.2002 85.9722 13.6948 82.0043 13.6948Z" fill="#585858"/>
<path d="M131.481 14.3192H128.43L139.479 40.7686L139.513 40.8498C139.608 41.0774 139.684 41.2611 139.74 41.4189C139.794 41.5724 139.817 41.6717 139.823 41.7364C139.819 41.7515 139.814 41.7714 139.807 41.7964C139.787 41.8665 139.757 41.9688 139.715 42.0999C139.631 42.3618 139.501 42.7344 139.32 43.1881C138.958 44.0961 138.393 45.3246 137.582 46.6407C135.956 49.2781 133.366 52.2327 129.479 53.6995L129.072 53.8533L130.138 56.0644L130.517 55.8821C133.629 54.3836 135.791 53.0588 137.916 50.2629C140.02 47.4938 142.079 43.2928 145.054 36.0775L145.055 36.0758L154.267 14.3192H151.265L151.164 14.5749C148.038 22.5088 144.82 30.3947 141.551 38.2681C141.27 37.558 141.011 36.9619 140.753 36.379L140.605 36.0447C140.302 35.3619 139.996 34.6731 139.65 33.8067L131.481 14.3192Z" fill="#585858"/>
<path d="M118.603 14.3219H115.886V43.0498H118.603V14.3219Z" fill="#585858"/>
<path opacity="0.7" d="M2.05313 65.6206H3.03386V59.8828H4.86701V59.0763H0.219978V59.8828H2.05313V65.6206ZM6.88591 62.8709H8.04996L9.36066 65.6206H10.4422L9.01236 62.7792C9.91061 62.5776 10.3047 62.0185 10.3047 60.9369C10.3047 60.3045 10.1581 59.8737 9.83728 59.5529C9.49815 59.2137 9.03986 59.0763 8.23328 59.0763H5.90518V65.6206H6.88591V62.8709ZM6.86758 62.0918V59.8645H8.14162C8.96654 59.8645 9.33317 60.2036 9.33317 60.9827C9.33317 61.7435 8.98487 62.0918 8.19661 62.0918H6.86758ZM15.3115 64.2549L15.7697 65.6206H16.833L14.4499 59.0763H13.5058L11.1227 65.6206H12.1859L12.6442 64.2549H15.3115ZM15.0731 63.4667H12.8825L13.9824 60.2678L15.0731 63.4667ZM17.4141 65.6206H18.3673V60.7261L21.282 65.6206H22.2352V59.0763H21.282V63.9708L18.3673 59.0763H17.4141V65.6206ZM26.1013 62.8709H27.3295V63.375C27.3295 64.4107 26.8804 64.9148 25.9547 64.9148C24.9556 64.9148 24.5798 64.3924 24.5798 62.9809V61.7343C24.5798 60.332 24.9556 59.8004 25.9455 59.8004C26.6696 59.8004 27.1004 60.1487 27.1921 60.8178L28.0995 60.7536C28.0353 59.6079 27.2745 59.0029 25.9088 59.0029C25.0839 59.0029 24.5248 59.2229 24.1124 59.6995C23.7366 60.1303 23.5991 60.6619 23.5991 61.6702V63.0359C23.5991 63.9708 23.7091 64.4749 24.0207 64.8965C24.424 65.4556 25.0289 65.7123 25.973 65.7123C26.8163 65.7123 27.412 65.474 27.8245 64.979C28.1728 64.5574 28.3011 64.0716 28.3011 63.1642V62.1101H26.1013V62.8709ZM32.3645 65.6206H33.3453V59.8828H35.1784V59.0763H30.5314V59.8828H32.3645V65.6206ZM36.2074 65.6206H37.1882V62.7151H39.6996V65.6206H40.6803V59.0763H39.6996V61.9085H37.1882V59.0763H36.2074V65.6206ZM42.0523 63.1459C42.0523 64.0074 42.1806 64.5115 42.5014 64.924C42.9139 65.4648 43.5097 65.7123 44.4171 65.7123C45.2512 65.7123 45.8011 65.5106 46.2319 65.034C46.626 64.6124 46.7727 64.0808 46.7727 63.1459V61.551C46.7727 60.6894 46.6443 60.1853 46.3235 59.7729C45.9111 59.2321 45.3153 58.9846 44.4171 58.9846C43.5738 58.9846 43.0239 59.1863 42.5931 59.6629C42.199 60.0937 42.0523 60.6161 42.0523 61.551V63.1459ZM45.7919 63.0542C45.7919 64.3649 45.3795 64.9148 44.4171 64.9148C43.4455 64.9148 43.033 64.3649 43.033 63.0542V61.6427C43.033 60.332 43.4455 59.782 44.4171 59.782C45.3795 59.782 45.7919 60.332 45.7919 61.6427V63.0542ZM44.4079 57.6739L44.9945 58.4072H45.9294L44.7287 57.1056H44.0871L42.8956 58.4072H43.8305L44.4079 57.6739ZM48.1462 65.6206H49.0994V60.7261L52.0141 65.6206H52.9674V59.0763H52.0141V63.9708L49.0994 59.0763H48.1462V65.6206ZM56.8334 62.8709H58.0616V63.375C58.0616 64.4107 57.6125 64.9148 56.6868 64.9148C55.6877 64.9148 55.3119 64.3924 55.3119 62.9809V61.7343C55.3119 60.332 55.6877 59.8004 56.6776 59.8004C57.4017 59.8004 57.8325 60.1487 57.9242 60.8178L58.8316 60.7536C58.7674 59.6079 58.0066 59.0029 56.641 59.0029C55.816 59.0029 55.2569 59.2229 54.8445 59.6995C54.4687 60.1303 54.3312 60.6619 54.3312 61.6702V63.0359C54.3312 63.9708 54.4412 64.4749 54.7528 64.8965C55.1561 65.4556 55.761 65.7123 56.7051 65.7123C57.5484 65.7123 58.1441 65.474 58.5566 64.979C58.9049 64.5574 59.0332 64.0716 59.0332 63.1642V62.1101H56.8334V62.8709ZM63.0966 65.6206H64.0774V59.8828H65.9105V59.0763H61.2635V59.8828H63.0966V65.6206ZM66.9395 65.6206H67.9203V59.0763H66.9395V65.6206ZM69.4494 65.6206H70.4026V60.7261L73.3173 65.6206H74.2706V59.0763H73.3173V63.9708L70.4026 59.0763H69.4494V65.6206ZM77.405 61.9176H76.6717V62.7059H77.405V65.6206H79.5589C81.2087 65.6389 82.0245 64.7957 81.9787 63.1092V61.5877C82.0245 59.9012 81.2087 59.0488 79.5589 59.0763H77.405V61.9176ZM78.3857 61.9176V59.8645H79.3848C80.5305 59.837 80.9888 60.3503 80.9979 61.6702V63.0175C80.9888 64.3466 80.5305 64.8598 79.3848 64.8324H78.3857V62.7059H79.7605V61.9176H78.3857ZM83.3609 65.6206H84.3416V59.0763H83.3609V65.6206ZM85.8799 65.6206H89.8303V64.814H86.8515V62.7151H89.3629V61.9085H86.8515V59.8828H89.8028V59.0763H85.8799V65.6206ZM87.8597 57.6739L88.4463 58.4072H89.3721L88.1805 57.1056H87.5389L86.3382 58.4072H87.2731L87.8597 57.6739ZM87.4289 67.4538H88.3363V66.4089H87.4289V67.4538ZM90.9584 65.6206H91.9117V60.7261L94.8264 65.6206H95.7796V59.0763H94.8264V63.9708L91.9117 59.0763H90.9584V65.6206ZM100.087 65.6206H101.068V59.8828H102.901V59.0763H98.2541V59.8828H100.087V65.6206ZM103.742 59.0763V63.2008C103.742 64.0716 103.815 64.4749 104.053 64.8415C104.447 65.4373 105.071 65.7123 106.042 65.7123C106.95 65.7123 107.518 65.4831 107.93 64.9515C108.242 64.5665 108.334 64.1449 108.334 63.2008V61.0652C108.81 60.8178 108.975 60.7261 109.158 60.5978C109.672 60.2311 109.892 59.8645 109.892 59.3787C109.892 59.2321 109.883 59.1404 109.828 58.9754H109.003C109.103 59.1679 109.14 59.2962 109.14 59.4887C109.14 59.9195 108.929 60.1853 108.334 60.4603V59.0763H107.353V63.2008C107.353 63.7508 107.307 64.0624 107.197 64.3007C106.986 64.7315 106.638 64.9148 106.042 64.9148C105.474 64.9148 105.153 64.759 104.924 64.3832C104.777 64.1266 104.722 63.8333 104.722 63.2008V59.0763H103.742ZM106.5 58.5172C106.51 58.233 106.519 58.1872 106.665 58.0039C106.922 57.6922 106.959 57.6281 106.959 57.4173C106.959 56.9773 106.638 56.7207 106.088 56.7207C105.813 56.7207 105.63 56.7573 105.309 56.8673L105.465 57.3898C105.685 57.2889 105.804 57.2614 105.932 57.2614C106.097 57.2614 106.189 57.3348 106.189 57.4539C106.189 57.5273 106.161 57.6006 106.106 57.6831C105.877 57.9947 105.859 58.0497 105.85 58.398V58.5172H106.5ZM113.095 65.6206H114.075V59.8828H115.909V59.0763H111.262V59.8828H113.095V65.6206ZM116.621 63.1459C116.621 64.0074 116.749 64.5115 117.07 64.924C117.482 65.4648 118.078 65.7123 118.985 65.7123C119.82 65.7123 120.369 65.5106 120.8 65.034C121.194 64.6124 121.341 64.0808 121.341 63.1459V61.551C121.341 60.6894 121.213 60.1853 120.892 59.7729C120.479 59.2321 119.884 58.9846 118.985 58.9846C118.142 58.9846 117.592 59.1863 117.161 59.6629C116.767 60.0937 116.621 60.6161 116.621 61.551V63.1459ZM120.36 63.0542C120.36 64.3649 119.948 64.9148 118.985 64.9148C118.014 64.9148 117.601 64.3649 117.601 63.0542V61.6427C117.601 60.332 118.014 59.782 118.985 59.782C119.948 59.782 120.36 60.332 120.36 61.6427V63.0542ZM119.26 57.5181C119.27 57.3256 119.27 57.2981 119.389 57.1881C119.59 56.9773 119.627 56.9131 119.627 56.7573C119.627 56.4274 119.352 56.2257 118.894 56.2257C118.646 56.2257 118.472 56.2624 118.234 56.3449L118.371 56.7665C118.545 56.684 118.646 56.6565 118.756 56.6565C118.894 56.6565 118.967 56.6932 118.967 56.7665C118.967 56.8123 118.94 56.8765 118.903 56.9223C118.701 57.1606 118.692 57.1973 118.683 57.5181H119.26ZM118.967 58.1505L119.535 58.6455H120.424L119.27 57.6647H118.655L117.51 58.6455H118.39L118.967 58.1505ZM122.715 65.6206H123.668V60.7261L126.582 65.6206H127.536V59.0763H126.582V63.9708L123.668 59.0763H122.715V65.6206ZM131.402 62.8709H132.63V63.375C132.63 64.4107 132.181 64.9148 131.255 64.9148C130.256 64.9148 129.88 64.3924 129.88 62.9809V61.7343C129.88 60.332 130.256 59.8004 131.246 59.8004C131.97 59.8004 132.401 60.1487 132.493 60.8178L133.4 60.7536C133.336 59.6079 132.575 59.0029 131.209 59.0029C130.384 59.0029 129.825 59.2229 129.413 59.6995C129.037 60.1303 128.9 60.6619 128.9 61.6702V63.0359C128.9 63.9708 129.01 64.4749 129.321 64.8965C129.724 65.4556 130.329 65.7123 131.273 65.7123C132.117 65.7123 132.713 65.474 133.125 64.979C133.473 64.5574 133.602 64.0716 133.602 63.1642V62.1101H131.402V62.8709ZM136.492 65.6206H137.473V62.7151H139.984V65.6206H140.965V59.0763H139.984V61.9085H137.473V59.0763H136.492V65.6206ZM147.314 58.9754C147.415 59.1588 147.451 59.2962 147.451 59.4796C147.451 59.8187 147.305 60.0387 146.892 60.3136C146.562 59.4154 145.847 58.9846 144.692 58.9846C143.858 58.9846 143.308 59.1954 142.877 59.6629C142.483 60.0937 142.337 60.6161 142.337 61.551V63.1459C142.337 64.0074 142.465 64.5115 142.786 64.924C143.198 65.4648 143.794 65.7123 144.701 65.7123C145.536 65.7123 146.085 65.5106 146.516 65.034C146.91 64.6124 147.057 64.0808 147.057 63.1459V61.551C147.057 61.2852 147.048 61.1202 147.002 60.8636C147.36 60.6528 147.488 60.5794 147.662 60.4328C148.01 60.1487 148.203 59.7637 148.203 59.3604C148.203 59.2137 148.184 59.1313 148.139 58.9754H147.314ZM146.076 63.0542C146.076 64.3649 145.664 64.9148 144.701 64.9148C143.73 64.9148 143.317 64.3649 143.317 63.0542V61.6427C143.317 60.3411 143.73 59.7912 144.701 59.7912C145.664 59.7912 146.076 60.3411 146.076 61.6427V63.0542ZM144.142 67.4538H145.05V66.4089H144.142V67.4538ZM149.707 63.1642H150.88C151.668 63.1642 152.136 63.0359 152.484 62.7242C152.878 62.3668 153.052 61.8626 153.052 61.1111C153.052 60.4145 152.906 59.9562 152.566 59.5987C152.209 59.2229 151.741 59.0763 150.88 59.0763H148.726V65.6206H149.707V63.1642ZM149.688 62.3668V59.8645H150.88C151.714 59.8645 152.081 60.2403 152.081 61.1202C152.081 61.9818 151.714 62.3668 150.88 62.3668H149.688Z" fill="#525252"/>
</svg>
