<?xml version="1.0" encoding="UTF-8"?>
<svg id="Layer_1" data-name="Layer 1" xmlns="http://www.w3.org/2000/svg" version="1.1" viewBox="0 0 430 130">
  <defs>
    <style>
      .cls-1 {
        fill: #d81616;
        stroke-width: 0px;
      }
    </style>
  </defs>
  <path class="cls-1" d="M56.5,5.2v30.5h6.8v31h-6.8v22.9s0,3,3.4,2.9c0,0,3,.2,3.4-2.7v24.2s-7.1,11-19.1,11c0,0-15.5,1.1-19-16.7v-41.3h-15.8L56.5,5.2Z"/>
  <path class="cls-1" d="M291.9,66.5v22.9s0,3,3.4,2.9c0,0,3,.2,3.4-2.7v24.2s-4.7,7.3-12.9,10c.1-.1.3-.2.4-.3,1.5-1.3,2.7-2.9,3.6-4.6.4-.8.5-1.7.3-2.6.6-.6,1.1-1.5,1.2-2.5,0-.3,0-.6.1-1,0-.6,0-1.1,0-1.7,0-2.8-.7-5.5-2-7.9-1.4-2.5-3.3-4.5-5.8-6-2.5-1.5-5.5-2.3-8.9-2.3s-6.4.8-9,2.3c-2.1,1.3-3.8,2.9-5.1,4.9v-35.3h-15.8l47-61.9v30.5h6.8v31h-6.8Z"/>
  <path class="cls-1" d="M66.8,35.7h31v53.5s.3,3.5,4.1,3.1c0,0,3.3.3,4.1-2.9v-53.7h30.3v87.4h-30.3v-10.8s-4.5,12.7-20,12.7c0,0-16.2.6-19.2-16.7V35.7h0Z"/>
  <path class="cls-1" d="M165.2,109.9c-.1-.3-.3-.4-.4-.5-.1,0-.3-.2-.6-.2s-.5,0-.6.1c-.1,0-.3.2-.4.6-.2.3-.3.8-.3,1.3s0,1,.3,1.3c.2.3.3.5.4.6,0,0,.2.1.6.1s.4,0,.5-.2c.1,0,.3-.2.5-.5.2-.3.3-.8.3-1.3s0-1-.3-1.4ZM165.2,109.9c-.1-.3-.3-.4-.4-.5-.1,0-.3-.2-.6-.2s-.5,0-.6.1c-.1,0-.3.2-.4.6-.2.3-.3.8-.3,1.3s0,1,.3,1.3c.2.3.3.5.4.6,0,0,.2.1.6.1s.4,0,.5-.2c.1,0,.3-.2.5-.5.2-.3.3-.8.3-1.3s0-1-.3-1.4ZM165.2,109.9c-.1-.3-.3-.4-.4-.5-.1,0-.3-.2-.6-.2s-.5,0-.6.1c-.1,0-.3.2-.4.6-.2.3-.3.8-.3,1.3s0,1,.3,1.3c.2.3.3.5.4.6,0,0,.2.1.6.1s.4,0,.5-.2c.1,0,.3-.2.5-.5.2-.3.3-.8.3-1.3s0-1-.3-1.4ZM165.2,109.9c-.1-.3-.3-.4-.4-.5-.1,0-.3-.2-.6-.2s-.5,0-.6.1c-.1,0-.3.2-.4.6-.2.3-.3.8-.3,1.3s0,1,.3,1.3c.2.3.3.5.4.6,0,0,.2.1.6.1s.4,0,.5-.2c.1,0,.3-.2.5-.5.2-.3.3-.8.3-1.3s0-1-.3-1.4ZM165.2,109.9c-.1-.3-.3-.4-.4-.5-.1,0-.3-.2-.6-.2s-.5,0-.6.1c-.1,0-.3.2-.4.6-.2.3-.3.8-.3,1.3s0,1,.3,1.3c.2.3.3.5.4.6,0,0,.2.1.6.1s.4,0,.5-.2c.1,0,.3-.2.5-.5.2-.3.3-.8.3-1.3s0-1-.3-1.4ZM165.2,109.9c-.1-.3-.3-.4-.4-.5-.1,0-.3-.2-.6-.2s-.5,0-.6.1c-.1,0-.3.2-.4.6-.2.3-.3.8-.3,1.3s0,1,.3,1.3c.2.3.3.5.4.6,0,0,.2.1.6.1s.4,0,.5-.2c.1,0,.3-.2.5-.5.2-.3.3-.8.3-1.3s0-1-.3-1.4ZM165.2,109.9c-.1-.3-.3-.4-.4-.5-.1,0-.3-.2-.6-.2s-.5,0-.6.1c-.1,0-.3.2-.4.6-.2.3-.3.8-.3,1.3s0,1,.3,1.3c.2.3.3.5.4.6,0,0,.2.1.6.1s.4,0,.5-.2c.1,0,.3-.2.5-.5.2-.3.3-.8.3-1.3s0-1-.3-1.4ZM165.2,109.9c-.1-.3-.3-.4-.4-.5-.1,0-.3-.2-.6-.2s-.5,0-.6.1c-.1,0-.3.2-.4.6-.2.3-.3.8-.3,1.3s0,1,.3,1.3c.2.3.3.5.4.6,0,0,.2.1.6.1s.4,0,.5-.2c.1,0,.3-.2.5-.5.2-.3.3-.8.3-1.3s0-1-.3-1.4ZM165.2,109.9c-.1-.3-.3-.4-.4-.5-.1,0-.3-.2-.6-.2s-.5,0-.6.1c-.1,0-.3.2-.4.6-.2.3-.3.8-.3,1.3s0,1,.3,1.3c.2.3.3.5.4.6,0,0,.2.1.6.1s.4,0,.5-.2c.1,0,.3-.2.5-.5.2-.3.3-.8.3-1.3s0-1-.3-1.4ZM165.2,109.9c-.1-.3-.3-.4-.4-.5-.1,0-.3-.2-.6-.2s-.5,0-.6.1c-.1,0-.3.2-.4.6-.2.3-.3.8-.3,1.3s0,1,.3,1.3c.2.3.3.5.4.6,0,0,.2.1.6.1s.4,0,.5-.2c.1,0,.3-.2.5-.5.2-.3.3-.8.3-1.3s0-1-.3-1.4ZM165.2,109.9c-.1-.3-.3-.4-.4-.5-.1,0-.3-.2-.6-.2s-.5,0-.6.1c-.1,0-.3.2-.4.6-.2.3-.3.8-.3,1.3s0,1,.3,1.3c.2.3.3.5.4.6,0,0,.2.1.6.1s.4,0,.5-.2c.1,0,.3-.2.5-.5.2-.3.3-.8.3-1.3s0-1-.3-1.4ZM165.2,109.9c-.1-.3-.3-.4-.4-.5-.1,0-.3-.2-.6-.2s-.5,0-.6.1c-.1,0-.3.2-.4.6-.2.3-.3.8-.3,1.3s0,1,.3,1.3c.2.3.3.5.4.6,0,0,.2.1.6.1s.4,0,.5-.2c.1,0,.3-.2.5-.5.2-.3.3-.8.3-1.3s0-1-.3-1.4ZM165.2,109.9c-.1-.3-.3-.4-.4-.5-.1,0-.3-.2-.6-.2s-.5,0-.6.1c-.1,0-.3.2-.4.6-.2.3-.3.8-.3,1.3s0,1,.3,1.3c.2.3.3.5.4.6,0,0,.2.1.6.1s.4,0,.5-.2c.1,0,.3-.2.5-.5.2-.3.3-.8.3-1.3s0-1-.3-1.4ZM165.2,109.9c-.1-.3-.3-.4-.4-.5-.1,0-.3-.2-.6-.2s-.5,0-.6.1c-.1,0-.3.2-.4.6-.2.3-.3.8-.3,1.3s0,1,.3,1.3c.2.3.3.5.4.6,0,0,.2.1.6.1s.4,0,.5-.2c.1,0,.3-.2.5-.5.2-.3.3-.8.3-1.3s0-1-.3-1.4ZM165.2,109.9c-.1-.3-.3-.4-.4-.5-.1,0-.3-.2-.6-.2s-.5,0-.6.1c-.1,0-.3.2-.4.6-.2.3-.3.8-.3,1.3s0,1,.3,1.3c.2.3.3.5.4.6,0,0,.2.1.6.1s.4,0,.5-.2c.1,0,.3-.2.5-.5.2-.3.3-.8.3-1.3s0-1-.3-1.4ZM165.2,109.9c-.1-.3-.3-.4-.4-.5-.1,0-.3-.2-.6-.2s-.5,0-.6.1c-.1,0-.3.2-.4.6-.2.3-.3.8-.3,1.3s0,1,.3,1.3c.2.3.3.5.4.6,0,0,.2.1.6.1s.4,0,.5-.2c.1,0,.3-.2.5-.5.2-.3.3-.8.3-1.3s0-1-.3-1.4ZM165.2,109.9c-.1-.3-.3-.4-.4-.5-.1,0-.3-.2-.6-.2s-.5,0-.6.1c-.1,0-.3.2-.4.6-.2.3-.3.8-.3,1.3s0,1,.3,1.3c.2.3.3.5.4.6,0,0,.2.1.6.1s.4,0,.5-.2c.1,0,.3-.2.5-.5.2-.3.3-.8.3-1.3s0-1-.3-1.4ZM165.2,109.9c-.1-.3-.3-.4-.4-.5-.1,0-.3-.2-.6-.2s-.5,0-.6.1c-.1,0-.3.2-.4.6-.2.3-.3.8-.3,1.3s0,1,.3,1.3c.2.3.3.5.4.6,0,0,.2.1.6.1s.4,0,.5-.2c.1,0,.3-.2.5-.5.2-.3.3-.8.3-1.3s0-1-.3-1.4ZM165.2,109.9c-.1-.3-.3-.4-.4-.5-.1,0-.3-.2-.6-.2s-.5,0-.6.1c-.1,0-.3.2-.4.6-.2.3-.3.8-.3,1.3s0,1,.3,1.3c.2.3.3.5.4.6,0,0,.2.1.6.1s.4,0,.5-.2c.1,0,.3-.2.5-.5.2-.3.3-.8.3-1.3s0-1-.3-1.4ZM165.2,109.9c-.1-.3-.3-.4-.4-.5-.1,0-.3-.2-.6-.2s-.5,0-.6.1c-.1,0-.3.2-.4.6-.2.3-.3.8-.3,1.3s0,1,.3,1.3c.2.3.3.5.4.6,0,0,.2.1.6.1s.4,0,.5-.2c.1,0,.3-.2.5-.5.2-.3.3-.8.3-1.3s0-1-.3-1.4ZM165.2,109.9c-.1-.3-.3-.4-.4-.5-.1,0-.3-.2-.6-.2s-.5,0-.6.1c-.1,0-.3.2-.4.6-.2.3-.3.8-.3,1.3s0,1,.3,1.3c.2.3.3.5.4.6,0,0,.2.1.6.1s.4,0,.5-.2c.1,0,.3-.2.5-.5.2-.3.3-.8.3-1.3s0-1-.3-1.4ZM165.2,109.9c-.1-.3-.3-.4-.4-.5-.1,0-.3-.2-.6-.2s-.5,0-.6.1c-.1,0-.3.2-.4.6-.2.3-.3.8-.3,1.3s0,1,.3,1.3c.2.3.3.5.4.6,0,0,.2.1.6.1s.4,0,.5-.2c.1,0,.3-.2.5-.5.2-.3.3-.8.3-1.3s0-1-.3-1.4ZM165.2,109.9c-.1-.3-.3-.4-.4-.5-.1,0-.3-.2-.6-.2s-.5,0-.6.1c-.1,0-.3.2-.4.6-.2.3-.3.8-.3,1.3s0,1,.3,1.3c.2.3.3.5.4.6,0,0,.2.1.6.1s.4,0,.5-.2c.1,0,.3-.2.5-.5.2-.3.3-.8.3-1.3s0-1-.3-1.4ZM165.2,109.9c-.1-.3-.3-.4-.4-.5-.1,0-.3-.2-.6-.2s-.5,0-.6.1c-.1,0-.3.2-.4.6-.2.3-.3.8-.3,1.3s0,1,.3,1.3c.2.3.3.5.4.6,0,0,.2.1.6.1s.4,0,.5-.2c.1,0,.3-.2.5-.5.2-.3.3-.8.3-1.3s0-1-.3-1.4ZM165.2,109.9c-.1-.3-.3-.4-.4-.5-.1,0-.3-.2-.6-.2s-.5,0-.6.1c-.1,0-.3.2-.4.6-.2.3-.3.8-.3,1.3s0,1,.3,1.3c.2.3.3.5.4.6,0,0,.2.1.6.1s.4,0,.5-.2c.1,0,.3-.2.5-.5.2-.3.3-.8.3-1.3s0-1-.3-1.4ZM165.2,109.9c-.1-.3-.3-.4-.4-.5-.1,0-.3-.2-.6-.2s-.5,0-.6.1c-.1,0-.3.2-.4.6-.2.3-.3.8-.3,1.3s0,1,.3,1.3c.2.3.3.5.4.6,0,0,.2.1.6.1s.4,0,.5-.2c.1,0,.3-.2.5-.5.2-.3.3-.8.3-1.3s0-1-.3-1.4ZM165.2,109.9c-.1-.3-.3-.4-.4-.5-.1,0-.3-.2-.6-.2s-.5,0-.6.1c-.1,0-.3.2-.4.6-.2.3-.3.8-.3,1.3s0,1,.3,1.3c.2.3.3.5.4.6,0,0,.2.1.6.1s.4,0,.5-.2c.1,0,.3-.2.5-.5.2-.3.3-.8.3-1.3s0-1-.3-1.4ZM165.2,109.9c-.1-.3-.3-.4-.4-.5-.1,0-.3-.2-.6-.2s-.5,0-.6.1c-.1,0-.3.2-.4.6-.2.3-.3.8-.3,1.3s0,1,.3,1.3c.2.3.3.5.4.6,0,0,.2.1.6.1s.4,0,.5-.2c.1,0,.3-.2.5-.5.2-.3.3-.8.3-1.3s0-1-.3-1.4ZM165.2,109.9c-.1-.3-.3-.4-.4-.5-.1,0-.3-.2-.6-.2s-.5,0-.6.1c-.1,0-.3.2-.4.6-.2.3-.3.8-.3,1.3s0,1,.3,1.3c.2.3.3.5.4.6,0,0,.2.1.6.1s.4,0,.5-.2c.1,0,.3-.2.5-.5.2-.3.3-.8.3-1.3s0-1-.3-1.4ZM165.2,109.9c-.1-.3-.3-.4-.4-.5-.1,0-.3-.2-.6-.2s-.5,0-.6.1c-.1,0-.3.2-.4.6-.2.3-.3.8-.3,1.3s0,1,.3,1.3c.2.3.3.5.4.6,0,0,.2.1.6.1s.4,0,.5-.2c.1,0,.3-.2.5-.5.2-.3.3-.8.3-1.3s0-1-.3-1.4ZM165.2,109.9c-.1-.3-.3-.4-.4-.5-.1,0-.3-.2-.6-.2s-.5,0-.6.1c-.1,0-.3.2-.4.6-.2.3-.3.8-.3,1.3s0,1,.3,1.3c.2.3.3.5.4.6,0,0,.2.1.6.1s.4,0,.5-.2c.1,0,.3-.2.5-.5.2-.3.3-.8.3-1.3s0-1-.3-1.4ZM165.2,109.9c-.1-.3-.3-.4-.4-.5-.1,0-.3-.2-.6-.2s-.5,0-.6.1c-.1,0-.3.2-.4.6-.2.3-.3.8-.3,1.3s0,1,.3,1.3c.2.3.3.5.4.6,0,0,.2.1.6.1s.4,0,.5-.2c.1,0,.3-.2.5-.5.2-.3.3-.8.3-1.3s0-1-.3-1.4ZM165.2,109.9c-.1-.3-.3-.4-.4-.5-.1,0-.3-.2-.6-.2s-.5,0-.6.1c-.1,0-.3.2-.4.6-.2.3-.3.8-.3,1.3s0,1,.3,1.3c.2.3.3.5.4.6,0,0,.2.1.6.1s.4,0,.5-.2c.1,0,.3-.2.5-.5.2-.3.3-.8.3-1.3s0-1-.3-1.4ZM165.2,109.9c-.1-.3-.3-.4-.4-.5-.1,0-.3-.2-.6-.2s-.5,0-.6.1c-.1,0-.3.2-.4.6-.2.3-.3.8-.3,1.3s0,1,.3,1.3c.2.3.3.5.4.6,0,0,.2.1.6.1s.4,0,.5-.2c.1,0,.3-.2.5-.5.2-.3.3-.8.3-1.3s0-1-.3-1.4ZM165.2,109.9c-.1-.3-.3-.4-.4-.5-.1,0-.3-.2-.6-.2s-.5,0-.6.1c-.1,0-.3.2-.4.6-.2.3-.3.8-.3,1.3s0,1,.3,1.3c.2.3.3.5.4.6,0,0,.2.1.6.1s.4,0,.5-.2c.1,0,.3-.2.5-.5.2-.3.3-.8.3-1.3s0-1-.3-1.4ZM204.2,66.6c-4.2-18.5-17.8-32-33.8-32s-30.1,14-34,32.9c-.8,3.6-1.2,7.4-1.2,11.4s.4,7.7,1.2,11.4c1.9,8.9,5.9,16.7,11.3,22.4,0-.5,0-.9,0-1.4,0-2.2.4-4.2,1.1-6.1.8-2,1.9-3.7,3.3-5.3,1.5-1.5,3.3-2.8,5.4-3.6,2.1-.9,4.4-1.3,6.9-1.3s4.9.5,6.9,1.3c2.1.9,3.9,2.1,5.3,3.6v-.5c0-2.2,1.8-4.1,4.1-4.1h6.5c1,0,1.9.3,2.6.9.6-.2,1.1-.4,1.7-.6,1.5-.5,3.2-.7,5-.7s4.2.5,5.7,1.4c.2.1.4.2.6.3,0,0,0-.2,0-.3v-4.9c0-1.2.6-2.3,1.5-3.1.2-.2.4-.3.6-.4.5-2.9.8-5.9.8-9.1,0-4.3-.5-8.4-1.4-12.3ZM170.3,89.7c-2.3,0-4.1-4.8-4.1-10.8s1.8-10.8,4.1-10.8,4.1,4.8,4.1,10.8-1.8,10.8-4.1,10.8ZM165.2,109.9c-.1-.3-.3-.4-.4-.5-.1,0-.3-.2-.6-.2s-.5,0-.6.1c-.1,0-.3.2-.4.6-.2.3-.3.8-.3,1.3s0,1,.3,1.3c.2.3.3.5.4.6,0,0,.2.1.6.1s.4,0,.5-.2c.1,0,.3-.2.5-.5.2-.3.3-.8.3-1.3s0-1-.3-1.4ZM165.2,109.9c-.1-.3-.3-.4-.4-.5-.1,0-.3-.2-.6-.2s-.5,0-.6.1c-.1,0-.3.2-.4.6-.2.3-.3.8-.3,1.3s0,1,.3,1.3c.2.3.3.5.4.6,0,0,.2.1.6.1s.4,0,.5-.2c.1,0,.3-.2.5-.5.2-.3.3-.8.3-1.3s0-1-.3-1.4Z"/>
  <path class="cls-1" d="M228.1,36.8c4.1,0,7.5-5.2,7.5-11.7s-3.4-11.7-7.5-11.7-7.5,5.2-7.5,11.7,3.4,11.7,7.5,11.7Z"/>
  <path class="cls-1" d="M407.4,90.5c-3.5,4.1-9.3,6.8-15.8,6.8-10.7,0-19.3-7.1-19.3-15.8h36.2c0-.2,0-.3,0-.5.5-6.7-.2-13-1.7-18.6-1.5-5.6-3.8-10.7-6.8-14.8-5.6-7.8-13.6-12.7-22.5-13.3h0c-.6,0-1.2,0-1.8,0-6,0-11.5,1.9-16.3,5.2-9.5,6.6-16.2,18.9-17.7,33.6-.2,2-.3,4.1-.3,6.2,0,26.1,15,45.6,34.4,45.6s1.1,0,1.6,0h.2c.6,0,1.2,0,1.8,0s1.1,0,1.6,0c14-.8,23.8-11.5,28.4-27.4v-10c-.6,1.1-1.3,2-2.1,2.9ZM377.6,56.7c2.9,0,5.3,4.4,5.3,9.9s0,.6,0,.9h-10.6c0-.3,0-.6,0-.9,0-5.4,2.4-9.9,5.4-9.9Z"/>
  <path class="cls-1" d="M365.7,54.5c0,10.9-8,19.7-17.9,19.7s-10.9-3-14.2-7.6v56.4h-31.4V35.6h31.4v6.9c3.3-4.6,8.4-7.6,14.2-7.6,9.9,0,17.9,8.8,17.9,19.7Z"/>
  <path class="cls-1" d="M235.6,35.6v55.8c0-2.2-2-4.1-4.4-4.1h-7.8c-2.4,0-4.4,1.8-4.4,4.1,0-2.2-2-4.1-4.3-4.1h-7.7c-.8,0-1.6.2-2.2.6-.2.1-.4.3-.6.4v-52.7c4.8,2.8,10.1,4.3,15.7,4.3,5.6,0,11-1.5,15.7-4.3Z"/>
  <path class="cls-1" d="M178.8,32.6c-2.7-.8-5.6-1.2-8.5-1.2s-5.8.4-8.5,1.2l8.5-13.5,8.5,13.5Z"/>
  <path class="cls-1" d="M189.9,22.9c0,.3-.1.6-.3,1.1h0c-.6,2-2.5,5.3-8.1,8.6.1-.2,2.1-3.7,1.6-5.2-2.3-.6-3.9-2.7-3.9-5.2s2.4-5.4,5.4-5.4,5.4,2.4,5.4,5.4c0,0,0,.3,0,.7Z"/>
  <path class="cls-1" d="M383,22.9c0,.3-.1.6-.3,1.1h0c-.6,2-2.5,5.3-8.1,8.6.1-.2,2.1-3.7,1.6-5.2-2.3-.6-3.9-2.7-3.9-5.2s2.4-5.4,5.4-5.4,5.4,2.4,5.4,5.4c0,0,0,.3,0,.7Z"/>
  <path class="cls-1" d="M189.9,23.6c0,.4-.2.8-.3,1.1.1-.5.2-.8.3-1.1Z"/>
  <path class="cls-1" d="M231.1,91.4h-7.2v6.3h7.2v-6.3Z"/>
  <path class="cls-1" d="M176.5,107.8c-.1-.4-.2-.8-.4-1.2-.6-1.5-1.4-2.8-2.5-3.9-1.1-1.1-2.4-2-4-2.7-1.6-.6-3.4-1-5.4-1s-3.8.3-5.4,1c-1.6.7-2.9,1.5-4,2.7-1.1,1.1-1.9,2.4-2.5,3.9-.6,1.5-.8,3-.8,4.7s.3,3.2.8,4.6c.2.6.5,1.2.8,1.7.5.8,1,1.5,1.7,2.2,1.1,1.1,2.4,2,4,2.7,1.6.6,3.4,1,5.4,1s2.5-.2,3.6-.4c.6-.2,1.2-.3,1.8-.6,1.6-.7,2.9-1.6,4-2.7,1.1-1.1,1.9-2.5,2.5-3.9.1-.4.3-.8.4-1.2.3-1.1.5-2.3.5-3.4,0-1.2-.2-2.4-.5-3.5ZM168.8,114.4c-.5.9-1.1,1.6-1.9,2.2-.8.5-1.7.8-2.7.8s-1.9-.3-2.7-.8c-.8-.5-1.4-1.2-1.9-2.1-.5-.9-.7-2-.7-3.2s.2-2.3.7-3.2c.5-.9,1.1-1.6,1.9-2.1.8-.5,1.7-.8,2.7-.8s1.9.3,2.7.8c.8.5,1.4,1.2,1.9,2.1.5.9.7,2,.7,3.2s-.2,2.2-.7,3.1Z"/>
  <path class="cls-1" d="M203.5,107.9v15.1h-7.2v-13.2c0-.3,0-.6,0-.9,0-1.1-.4-2-.8-2.5-.6-.7-1.4-1.1-2.3-1.1s-1.4.2-2,.5c-.7.3-1.3.8-1.9,1.4-.6.6-1,1.3-1.3,2.1v13.5h-7.3v-23.7h6.5v4c.6-.9,1.4-1.7,2.3-2.4.9-.7,2-1.2,3.1-1.5,1.2-.3,2.5-.5,3.8-.5s2.8.3,3.8.8c.4.2.7.5,1,.7.5.4.9.9,1.2,1.4.2.3.3.7.5,1.1.2.6.4,1.2.5,1.9.2,1.1.3,2.1.3,3.1Z"/>
  <path class="cls-1" d="M220.3,122.2c-.4.2-.8.3-1.3.5-.4.2-.8.3-1.2.3-.2,0-.4,0-.6.2-1.2.2-2.3.3-3.3.3s-2.1-.2-3-.5c-.7-.3-1.3-.6-1.8-1.1-.9-.9-1.5-2.1-1.7-3.6,0-.3,0-.6,0-.9v-26h7.2v23.5c0,.9.2,1.6.6,2,.4.4.9.6,1.5.6s.9,0,1.4-.2c.3,0,.6-.2.9-.3.1,0,.2-.1.3-.2l.9,5.2Z"/>
  <path class="cls-1" d="M231.1,100.3h-7.2v22.7h7.2v-22.7Z"/>
  <path class="cls-1" d="M257.3,107.9v15.1h-7.2v-13.2c0-1.5-.3-2.7-.9-3.4-.6-.7-1.4-1.1-2.3-1.1s-1.3.2-2,.5c-.7.3-1.3.8-1.9,1.4-.6.6-1,1.3-1.3,2.1v13.5h-7.2v-23.7h6.5v4c.6-.9,1.4-1.7,2.3-2.4.9-.7,2-1.2,3.1-1.5,1.2-.3,2.5-.5,3.8-.5s2.8.3,3.7.8c.9.6,1.7,1.3,2.2,2.2.5.9.8,1.9,1,2.9.3,1.1.3,2.1.3,3.1Z"/>
  <path class="cls-1" d="M285.9,105.2c-1-1.9-2.4-3.3-4.3-4.5-1.9-1.1-4.2-1.7-6.9-1.7s-5,.6-6.9,1.7c-1.9,1.1-3.3,2.6-4.4,4.5-1,1.9-1.5,3.9-1.5,6.2s0,1.1.1,1.6c.1,1,.4,2,.8,3,.6,1.4,1.4,2.8,2.5,3.9,1.1,1.1,2.4,2,4,2.6.7.3,1.5.5,2.3.7,1,.2,2,.3,3.1.3,1.8,0,3.5-.3,5-.8,1.5-.6,2.8-1.3,3.9-2.3,1.1-.9,2-2.1,2.6-3.3l-6.2-1.7c-.4.9-1,1.6-2,2.1-.9.5-2,.8-3.1.8s-1.7-.2-2.5-.6c-.8-.4-1.4-.9-1.9-1.6-.5-.7-.8-1.6-.9-2.6h17.6c0-.3,0-.6.1-1.1,0-.4,0-.8,0-1.2,0-2.1-.6-4.1-1.5-5.9ZM269.4,109c.1-.9.4-1.8.9-2.5.4-.7,1.1-1.2,1.8-1.7.8-.4,1.6-.6,2.5-.6s1.7.2,2.5.6c.8.4,1.4.9,1.8,1.7.5.7.8,1.5.9,2.5h-10.3Z"/>
</svg>