<svg width="42" height="42" viewBox="0 0 42 42" fill="none" xmlns="http://www.w3.org/2000/svg">
<path d="M9.42742 7.09824C9.42742 6.6795 9.42448 6.29562 9.42784 5.91216C9.43918 4.63074 10.461 3.61644 11.7404 3.61476C13.0256 3.61308 14.0554 4.62024 14.0697 5.89536C14.0739 6.2805 14.0705 6.66606 14.0705 7.07472C15.6233 7.07472 17.1516 7.07472 18.7199 7.07472C18.7199 6.68412 18.7174 6.30108 18.7203 5.91762C18.7308 4.63368 19.7498 3.6177 21.0274 3.61476C22.3294 3.61182 23.3521 4.62318 23.3622 5.92644C23.3651 6.30024 23.3626 6.67362 23.3626 7.07304C24.9111 7.07304 26.4395 7.07304 28.0116 7.07304C28.0116 6.68916 28.0091 6.30612 28.012 5.92308C28.0221 4.62234 29.0477 3.61098 30.3501 3.61476C31.6269 3.61854 32.6433 4.63494 32.6543 5.92098C32.6576 6.2952 32.6547 6.66942 32.6547 7.09824C32.7857 7.09824 32.9004 7.09824 33.0155 7.09824C33.8744 7.09824 34.7337 7.09362 35.5926 7.0995C37.1743 7.11 38.4582 8.38092 38.4599 9.96012C38.4658 14.9682 38.4624 19.9759 38.4616 24.9839C38.4616 25.4228 38.2562 25.6681 37.8955 25.6753C37.5196 25.6828 37.3045 25.4312 37.3041 24.9734C37.3028 21.889 37.3037 18.8041 37.3037 15.7196C37.3037 15.5747 37.3037 15.4298 37.3037 15.2546C26.4719 15.2546 15.6514 15.2546 4.77844 15.2546C4.77844 15.3706 4.77844 15.4978 4.77844 15.6255C4.77844 21.4198 4.77802 27.2141 4.77886 33.0085C4.77886 34.2508 5.49454 34.969 6.73438 34.969C11.9852 34.9699 17.2361 34.9694 22.4873 34.9694C22.6083 34.9694 22.7305 34.961 22.8502 34.9741C23.1471 35.006 23.355 35.2391 23.3618 35.5343C23.3685 35.8443 23.1551 36.0908 22.8426 36.1244C22.7469 36.1349 22.6494 36.1282 22.5524 36.1282C17.2533 36.1282 11.9537 36.1291 6.65458 36.1278C4.85446 36.1274 3.6205 34.898 3.6205 33.1042C3.61966 25.4472 3.61966 17.7902 3.6205 10.1327C3.6205 8.3322 4.84942 7.10076 6.64408 7.09866C7.55968 7.09782 8.4757 7.09824 9.42742 7.09824ZM14.0705 8.27088C14.0705 8.68038 14.073 9.05376 14.0701 9.42714C14.06 10.73 13.0373 11.743 11.7374 11.7405C10.4602 11.738 9.43876 10.722 9.42784 9.441C9.42448 9.05754 9.42742 8.67366 9.42742 8.30574C9.36946 8.28096 9.34846 8.26416 9.32746 8.26416C8.42068 8.2608 7.51348 8.2524 6.6067 8.2587C5.5315 8.26668 4.78852 9.01218 4.78012 10.0899C4.77298 11.021 4.77844 11.9522 4.77844 12.8833C4.77844 13.2668 4.77844 13.6502 4.77844 14.048C15.6338 14.048 26.4513 14.048 37.2726 14.048C37.2848 13.998 37.3003 13.9648 37.3003 13.9312C37.3016 12.6133 37.3175 11.2949 37.2957 9.97734C37.281 9.08316 36.6544 8.35152 35.7589 8.28978C34.7396 8.21964 33.7118 8.2734 32.6547 8.2734C32.6547 8.65392 32.6559 9.01386 32.6543 9.3738C32.6484 10.7165 31.6475 11.7397 30.3392 11.7409C29.0271 11.7426 28.0179 10.722 28.0116 9.3864C28.0099 9.0168 28.0112 8.6472 28.0112 8.28558C26.4328 8.28558 24.9044 8.28558 23.3622 8.28558C23.3622 8.68836 23.3651 9.06258 23.3618 9.4368C23.3508 10.7207 22.3328 11.7371 21.0564 11.7409C19.7561 11.7447 18.7296 10.7317 18.7199 9.43218C18.717 9.04956 18.7195 8.66694 18.7195 8.2713C17.1563 8.27088 15.6367 8.27088 14.0705 8.27088ZM10.5862 7.6602C10.5862 8.20326 10.5833 8.74632 10.587 9.28896C10.5917 10.0441 11.0881 10.588 11.7597 10.5796C12.4229 10.5716 12.9075 10.0416 12.9109 9.3045C12.9159 8.21838 12.9159 7.13268 12.9109 6.04656C12.9075 5.31156 12.4187 4.77984 11.7563 4.7748C11.0927 4.76976 10.5954 5.30022 10.5879 6.03102C10.5816 6.5745 10.5862 7.11756 10.5862 7.6602ZM22.2038 7.69506C22.2038 7.152 22.2068 6.60894 22.203 6.0663C22.1975 5.30988 21.7028 4.76766 21.0308 4.77522C20.3651 4.78278 19.8829 5.30988 19.8795 6.04866C19.8749 7.13478 19.8749 8.22048 19.8795 9.3066C19.8825 10.0412 20.3701 10.5737 21.0324 10.5805C21.6927 10.5872 22.1946 10.0525 22.203 9.32424C22.2084 8.78118 22.2038 8.23812 22.2038 7.69506ZM29.1704 7.66104C29.1704 8.2041 29.1674 8.74716 29.1712 9.2898C29.1762 10.0445 29.6731 10.5884 30.3447 10.5796C31.0083 10.5708 31.4917 10.0412 31.4951 9.30366C31.5001 8.21754 31.5001 7.13184 31.4951 6.04572C31.4917 5.31114 31.0016 4.77942 30.3396 4.7748C29.676 4.77018 29.1796 5.30064 29.172 6.03186C29.1657 6.57534 29.1704 7.1184 29.1704 7.66104Z" fill="#003c77"/>
<path d="M23.3655 30.8758C23.36 26.7262 26.7398 23.3628 30.9217 23.3569C35.0633 23.3506 38.4582 26.7279 38.462 30.8573C38.4657 35.0489 35.1175 38.4463 30.9788 38.4501C26.7297 38.4538 23.3714 35.1123 23.3655 30.8758ZM30.8889 37.2913C34.3397 37.3282 37.2566 34.4617 37.3011 30.9909C37.346 27.4822 34.4829 24.5434 30.9923 24.5166C27.4647 24.4893 24.5717 27.3163 24.5272 30.8338C24.4827 34.3509 27.342 37.2535 30.8889 37.2913Z" fill="#003c77"/>
<path d="M10.6083 18.1312C10.9955 18.1312 11.3828 18.1253 11.7696 18.1324C12.4034 18.1442 12.896 18.6276 12.9061 19.258C12.9158 19.8628 12.9162 20.4676 12.9057 21.0724C12.8952 21.6861 12.4093 22.1804 11.799 22.1892C10.9884 22.201 10.1778 22.2018 9.3672 22.1888C8.76114 22.1791 8.27688 21.6781 8.26764 21.0645C8.2584 20.4718 8.26008 19.8792 8.2668 19.2866C8.27436 18.628 8.75568 18.1434 9.41046 18.1324C9.80988 18.1257 10.2089 18.1312 10.6083 18.1312ZM9.44448 19.3068C9.44448 19.9011 9.44448 20.4525 9.44448 21.0111C10.2185 21.0111 10.972 21.0111 11.723 21.0111C11.723 20.4273 11.723 19.867 11.723 19.3068C10.9514 19.3068 10.2064 19.3068 9.44448 19.3068Z" fill="#003c77"/>
<path d="M17.5375 22.1923C17.1625 22.1923 16.7874 22.196 16.4123 22.1914C15.7315 22.1834 15.2435 21.7042 15.2359 21.031C15.2296 20.4505 15.2296 19.8697 15.2359 19.2892C15.2435 18.6151 15.7298 18.1363 16.4128 18.1317C17.1751 18.1267 17.9369 18.1267 18.6992 18.1317C19.3792 18.1363 19.8685 18.6181 19.8765 19.2905C19.8832 19.8709 19.8832 20.4518 19.8765 21.0322C19.8685 21.7055 19.3805 22.1834 18.6992 22.1914C18.312 22.196 17.9248 22.1923 17.5375 22.1923ZM18.6908 21.0201C18.6908 20.4237 18.6908 19.8634 18.6908 19.3077C17.9176 19.3077 17.1725 19.3077 16.4153 19.3077C16.4153 19.8865 16.4153 20.4463 16.4153 21.0201C17.1818 21.0201 17.9269 21.0201 18.6908 21.0201Z" fill="#003c77"/>
<path d="M24.5124 18.1313C24.9119 18.1313 25.3109 18.125 25.7103 18.1326C26.3432 18.1443 26.8346 18.6294 26.8447 19.2603C26.8543 19.8651 26.8552 20.4699 26.8443 21.0747C26.8334 21.687 26.3457 22.1805 25.7355 22.1894C24.9249 22.2007 24.1143 22.2015 23.3037 22.1889C22.714 22.1797 22.2205 21.6862 22.2079 21.099C22.1945 20.4825 22.1965 19.8651 22.207 19.2485C22.2175 18.6349 22.7035 18.1494 23.3154 18.1338C23.7136 18.1233 24.113 18.1313 24.5124 18.1313ZM23.3814 19.3048C23.3814 19.8978 23.3814 20.4489 23.3814 21.0121C24.1538 21.0121 24.9072 21.0121 25.6632 21.0121C25.6632 20.43 25.6632 19.8701 25.6632 19.3048C24.893 19.3048 24.1479 19.3048 23.3814 19.3048Z" fill="#003c77"/>
<path d="M31.4766 22.1925C31.1015 22.1925 30.7265 22.1963 30.3514 22.1917C29.6706 22.1837 29.1817 21.7049 29.1742 21.0325C29.1679 20.452 29.1679 19.8712 29.1742 19.2907C29.1817 18.6162 29.6677 18.137 30.3497 18.1324C31.112 18.1269 31.8739 18.1273 32.6362 18.1324C33.3166 18.137 33.8063 18.6183 33.8143 19.2903C33.821 19.8707 33.821 20.4516 33.8143 21.032C33.8063 21.7061 33.3191 22.1841 32.6379 22.1921C32.2511 22.1963 31.8638 22.1925 31.4766 22.1925ZM30.3598 19.3033C30.3598 19.8997 30.3598 20.46 30.3598 21.0157C31.133 21.0157 31.8781 21.0157 32.6354 21.0157C32.6354 20.4369 32.6354 19.877 32.6354 19.3033C31.8689 19.3033 31.1238 19.3033 30.3598 19.3033Z" fill="#003c77"/>
<path d="M10.5777 27.4179C10.1904 27.4183 9.80319 27.4234 9.41637 27.4171C8.76159 27.4062 8.27523 26.9211 8.26725 26.2663C8.26011 25.6737 8.25885 25.0806 8.26767 24.4884C8.27733 23.8555 8.76453 23.3662 9.39831 23.359C10.1967 23.3502 10.9952 23.349 11.7936 23.3599C12.4047 23.3683 12.8948 23.8597 12.9057 24.4712C12.9167 25.0878 12.9183 25.7052 12.9049 26.3217C12.8919 26.9122 12.4022 27.3978 11.8116 27.415C11.4005 27.4272 10.9889 27.4175 10.5777 27.4179ZM11.7348 24.5422C10.9481 24.5422 10.1946 24.5422 9.44157 24.5422C9.44157 25.1209 9.44157 25.672 9.44157 26.239C10.2127 26.239 10.9662 26.239 11.7348 26.239C11.7348 25.6674 11.7348 25.1159 11.7348 24.5422Z" fill="#003c77"/>
<path d="M17.5467 27.4179C17.1594 27.4183 16.7722 27.4234 16.3854 27.4171C15.7306 27.4062 15.2442 26.9211 15.2362 26.2663C15.2291 25.6737 15.2278 25.0806 15.2367 24.4884C15.2463 23.8555 15.7335 23.3662 16.3673 23.359C17.1657 23.3502 17.9641 23.349 18.7626 23.3599C19.3737 23.3683 19.8638 23.8597 19.8747 24.4712C19.8856 25.0878 19.8873 25.7052 19.8739 26.3217C19.8609 26.9122 19.3711 27.3978 18.7806 27.415C18.3694 27.4272 17.9578 27.4175 17.5467 27.4179ZM18.7038 24.5418C17.9179 24.5418 17.1645 24.5418 16.4236 24.5418C16.4236 25.1289 16.4236 25.6892 16.4236 26.2394C17.1989 26.2394 17.944 26.2394 18.7038 26.2394C18.7038 25.6678 18.7038 25.1163 18.7038 24.5418Z" fill="#003c77"/>
<path d="M10.6021 28.5827C10.9893 28.5827 11.3765 28.5772 11.7634 28.5839C12.4144 28.5953 12.8995 29.0833 12.9074 29.7393C12.9142 30.3198 12.9142 30.9006 12.9074 31.4811C12.8999 32.1569 12.4144 32.6378 11.7331 32.6428C10.9708 32.6487 10.2089 32.6483 9.44664 32.6428C8.7507 32.6378 8.27148 32.1514 8.26644 31.45C8.26224 30.8813 8.26056 30.3131 8.26686 29.7444C8.27442 29.0682 8.75826 28.5911 9.44034 28.5831C9.82758 28.5789 10.2148 28.5827 10.6021 28.5827ZM11.7424 29.7645C10.9553 29.7645 10.2018 29.7645 9.45126 29.7645C9.45126 30.3488 9.45126 30.9086 9.45126 31.4555C10.232 31.4555 10.9859 31.4555 11.7424 31.4555C11.7424 30.8826 11.7424 30.3399 11.7424 29.7645Z" fill="#003c77"/>
<path d="M17.571 28.5827C17.9583 28.5827 18.3455 28.5772 18.7324 28.5839C19.3834 28.5953 19.8685 29.0833 19.8764 29.7393C19.8832 30.3198 19.8832 30.9006 19.8764 31.4811C19.8689 32.1569 19.3834 32.6378 18.7021 32.6428C17.9398 32.6487 17.1779 32.6483 16.4156 32.6428C15.7197 32.6378 15.2405 32.1514 15.2354 31.45C15.2312 30.8813 15.2296 30.3131 15.2359 29.7444C15.2434 29.0682 15.7273 28.5911 16.4093 28.5831C16.7966 28.5789 17.1838 28.5827 17.571 28.5827ZM18.6895 31.4718C18.6895 30.8721 18.6895 30.3118 18.6895 29.7608C17.9146 29.7608 17.1695 29.7608 16.4169 29.7608C16.4169 30.3408 16.4169 30.9011 16.4169 31.4718C17.1851 31.4718 17.9297 31.4718 18.6895 31.4718Z" fill="#003c77"/>
<path d="M23.3746 24.5145C23.3746 25.1155 23.3746 25.6687 23.3746 26.229C23.4456 26.2525 23.5149 26.2693 23.5787 26.2983C23.8723 26.4318 23.9991 26.67 23.9265 26.9757C23.858 27.2643 23.6505 27.4146 23.3427 27.4188C22.7727 27.4264 22.228 26.9421 22.2099 26.365C22.1894 25.7132 22.1902 25.0597 22.2099 24.4074C22.2267 23.8551 22.7152 23.3734 23.2704 23.362C24.0802 23.3452 24.8904 23.3503 25.7001 23.3604C26.0412 23.3646 26.2671 23.6145 26.265 23.9391C26.2629 24.2634 26.0357 24.5065 25.6922 24.5107C24.9324 24.5212 24.1722 24.5145 23.3746 24.5145Z" fill="#003c77"/>
<path d="M29.7855 33.0188C29.9993 32.7777 30.1732 32.5614 30.3676 32.3657C31.5961 31.1313 32.8288 29.9011 34.0607 28.6701C34.1375 28.5932 34.2106 28.5109 34.2959 28.4441C34.5571 28.2388 34.8599 28.2539 35.083 28.4765C35.306 28.6991 35.3308 29.0074 35.114 29.2615C34.9183 29.4908 34.6945 29.6962 34.4807 29.9099C33.0955 31.2955 31.7104 32.6811 30.3239 34.0658C29.8783 34.511 29.6301 34.5131 29.1937 34.078C28.4575 33.3434 27.7216 32.608 26.9879 31.8713C26.659 31.5412 26.6208 31.2182 26.8715 30.952C27.1319 30.6752 27.4772 30.7054 27.8174 31.0444C28.4507 31.6752 29.0803 32.3107 29.7855 33.0188Z" fill="#003c77"/>
</svg>
