<svg xmlns="http://www.w3.org/2000/svg" width="25" height="25" viewBox="0 0 25 25" fill="none">
<path d="M22.9682 20.6816C22.9682 20.6816 21.5682 22.0567 21.2251 22.4598C20.6662 23.0563 20.0077 23.3379 19.1444 23.3379C19.0614 23.3379 18.9728 23.3379 18.8898 23.3324C17.2463 23.2274 15.719 22.5868 14.5735 22.0401C11.4413 20.5269 8.69104 18.3787 6.40558 15.6561C4.51855 13.3864 3.25685 11.2878 2.42124 9.03464C1.9066 7.65954 1.71845 6.58817 1.80146 5.57756C1.85679 4.93143 2.10582 4.39574 2.56512 3.93738L4.45215 2.05421C4.7233 1.80017 5.01106 1.66211 5.29328 1.66211C5.64191 1.66211 5.92414 1.87196 6.10122 2.04868C6.10675 2.05421 6.11229 2.05973 6.11782 2.06525C6.45538 2.38003 6.77634 2.70586 7.11391 3.05378C7.28545 3.2305 7.46254 3.40722 7.63962 3.58946L9.15035 5.0971C9.73693 5.68249 9.73693 6.22369 9.15035 6.80907C8.98986 6.96923 8.83492 7.12938 8.67444 7.28401C8.2096 7.75894 8.57476 7.39453 8.09332 7.82528C8.08225 7.83633 8.07118 7.84185 8.06565 7.8529C7.58974 8.32783 7.67828 8.79172 7.77789 9.1065C7.78342 9.12307 7.78896 9.13964 7.79449 9.1562C8.18739 10.1061 8.74077 11.0007 9.58191 12.0666L9.58744 12.0721C11.1148 13.9497 12.7251 15.4132 14.5015 16.5343C14.7283 16.6778 14.9608 16.7938 15.1821 16.9043C15.3813 17.0037 15.5695 17.0975 15.73 17.197C15.7521 17.208 15.7742 17.2246 15.7964 17.2356C15.9845 17.3295 16.1616 17.3737 16.3442 17.3737C16.8035 17.3737 17.0913 17.0865 17.1854 16.9926L18.27 15.9101C18.4582 15.7224 18.757 15.496 19.1057 15.496C19.4487 15.496 19.731 15.7113 19.9025 15.8991C19.9081 15.9046 19.9081 15.9046 19.9136 15.9101L22.9627 18.953C23.5327 19.5163 22.9682 20.6816 22.9682 20.6816Z" stroke="#003c77" stroke-width="2" stroke-linecap="round" stroke-linejoin="round"/>
</svg>